999
dxflib 3.12.2.0
  0
SECTION
  2
HEADER
  9
$ACADVER
  1
AC1015
  9
$HANDSEED
  5
FFFF
  9
$ANGBASE
 50
0.0
  9
$ANGDIR
 70
0
  9
$ATTMODE
 70
1
  9
$AUNITS
 70
0
  9
$AUPREC
 70
2
  9
$CECOLOR
 62
256
  9
$CELTSCALE
 40
1.0
  9
$CHAMFERA
 40
0.0
  9
$CHAMFERB
 40
0.0
  9
$CHAMFERC
 40
0.0
  9
$CHAMFERD
 40
0.0
  9
$CMLJUST
 70
0
  9
$CMLSCALE
 40
1.0
  9
$DIMADEC
 70
2
  9
$DIMALT
 70
0
  9
$DIMALTD
 70
2
  9
$DIMALTF
 40
25.399999999999999
  9
$DIMALTRND
 40
0.0
  9
$DIMALTTD
 70
2
  9
$DIMALTTZ
 70
0
  9
$DIMALTU
 70
2
  9
$DIMALTZ
 70
0
  9
$DIMAPOST
  1

  9
$DIMASZ
 40
0.2362204724
  9
$DIMATFIT
 70
3
  9
$DIMAUNIT
 70
0
  9
$DIMAZIN
 70
0
  9
$DIMBLK
  1

  9
$DIMBLK1
  1

  9
$DIMBLK2
  1

  9
$DIMCEN
 40
0.09
  9
$DIMCLRD
 70
0
  9
$DIMCLRE
 70
0
  9
$DIMCLRT
 70
0
  9
$DIMDEC
 70
2
  9
$DIMDLE
 40
0.0
  9
$DIMDLI
 40
0.38
  9
$DIMDSEP
 70
46
  9
$DIMEXE
 40
0.0393700787
  9
$DIMEXO
 40
0.0393700787
  9
$DIMFRAC
 70
0
  9
$DIMGAP
 40
0.06
  9
$DIMJUST
 70
0
  9
$DIMLDRBLK
  1

  9
$DIMLFAC
 40
1.0
  9
$DIMLIM
 70
0
  9
$DIMLUNIT
 70
2
  9
$DIMLWD
 70
-2
  9
$DIMLWE
 70
-2
  9
$DIMPOST
  1

  9
$DIMRND
 40
0.0
  9
$DIMSAH
 70
0
  9
$DIMSCALE
 40
1.0
  9
$DIMSD1
 70
0
  9
$DIMSD2
 70
0
  9
$DIMSE1
 70
0
  9
$DIMSE2
 70
0
  9
$DIMSOXD
 70
0
  9
$DIMTAD
 70
1
  9
$DIMTDEC
 70
2
  9
$DIMTFAC
 40
1.0
  9
$DIMTIH
 70
1
  9
$DIMTIX
 70
0
  9
$DIMTM
 40
0.0
  9
$DIMTOFL
 70
0
  9
$DIMTOH
 70
1
  9
$DIMTOL
 70
0
  9
$DIMTOLJ
 70
1
  9
$DIMTP
 40
0.0
  9
$DIMTSZ
 40
0.0
  9
$DIMTVP
 40
0.0
  9
$DIMTXSTY
  7
Standard
  9
$DIMTXT
 40
0.1377952756
  9
$DIMTZIN
 70
0
  9
$DIMUPT
 70
0
  9
$DIMZIN
 70
0
  9
$DISPSILH
 70
0
  9
$DWGCODEPAGE
  3
ANSI_1252
  9
$ELEVATION
 40
0.0
  9
$EXTMAX
 10
0.9118533168
 20
0.9448818898
 30
0.0
  9
$EXTMIN
 10
-0.9118533168
 20
-0.9448818898
 30
0.0
  9
$FILLETRAD
 40
0.5
  9
$FILLMODE
 70
1
  9
$INSBASE
 10
0.0
 20
0.0
 30
0.0
  9
$INSUNITS
 70
1
  9
$LIMCHECK
 70
0
  9
$LIMMAX
 10
12.0
 20
9.0
  9
$LIMMIN
 10
0.0
 20
0.0
  9
$LTSCALE
 40
1.0
  9
$LUNITS
 70
2
  9
$LUPREC
 70
2
  9
$MAXACTVP
 70
64
  9
$MEASUREMENT
 70
0
  9
$MIRRTEXT
 70
1
  9
$ORTHOMODE
 70
0
  9
$PDMODE
 70
0
  9
$PDSIZE
 40
-1.0
  9
$PELEVATION
 40
0.0
  9
$PEXTMAX
 10
-100000000000000000000.0
 20
-100000000000000000000.0
 30
-100000000000000000000.0
  9
$PEXTMIN
 10
100000000000000000000.0
 20
100000000000000000000.0
 30
100000000000000000000.0
  9
$PINSBASE
 10
0.0
 20
0.0
 30
0.0
  9
$PLIMCHECK
 70
0
  9
$PLIMMAX
 10
12.0
 20
9.0
  9
$PLIMMIN
 10
0.0
 20
0.0
  9
$PLINEGEN
 70
0
  9
$PLINEWID
 40
0.0
  9
$PROXYGRAPHICS
 70
1
  9
$PSLTSCALE
 70
1
  9
$PUCSNAME
  2

  9
$PUCSORG
 10
0.0
 20
0.0
 30
0.0
  9
$PUCSXDIR
 10
1.0
 20
0.0
 30
0.0
  9
$PUCSYDIR
 10
0.0
 20
1.0
 30
0.0
  9
$QTEXTMODE
 70
0
  9
$REGENMODE
 70
1
  9
$SHADEDGE
 70
3
  9
$SHADEDIF
 70
70
  9
$SKETCHINC
 40
0.1
  9
$SKPOLY
 70
0
  9
$SPLFRAME
 70
0
  9
$SPLINESEGS
 70
8
  9
$SPLINETYPE
 70
6
  9
$SURFTAB1
 70
6
  9
$SURFTAB2
 70
6
  9
$SURFTYPE
 70
6
  9
$SURFU
 70
6
  9
$SURFV
 70
6
  9
$TEXTSIZE
 40
0.1377952756
  9
$TEXTSTYLE
  7
Standard
  9
$THICKNESS
 40
0.0
  9
$TILEMODE
 70
1
  9
$TRACEWID
 40
0.05
  9
$TREEDEPTH
 70
3020
  9
$UCSNAME
  2

  9
$UCSORG
 10
0.0
 20
0.0
 30
0.0
  9
$UCSXDIR
 10
1.0
 20
0.0
 30
0.0
  9
$UCSYDIR
 10
0.0
 20
1.0
 30
0.0
  9
$UNITMODE
 70
0
  9
$USERI1
 70
0
  9
$USERI2
 70
0
  9
$USERI3
 70
0
  9
$USERI4
 70
0
  9
$USERI5
 70
0
  9
$USERR1
 40
0.0
  9
$USERR2
 40
0.0
  9
$USERR3
 40
0.0
  9
$USERR4
 40
0.0
  9
$USERR5
 40
0.0
  9
$USRTIMER
 70
1
  9
$VISRETAIN
 70
1
  0
ENDSEC
  0
SECTION
  2
TABLES
  0
TABLE
  2
VPORT
  5
8
100
AcDbSymbolTable
 70
1
  0
VPORT
  5
30
100
AcDbSymbolTableRecord
100
AcDbViewportTableRecord
  2
*Active
 70
0
 10
0.0
 20
0.0
 11
1.0
 21
1.0
 12
286.30555555555549
 22
148.5
 13
0.0
 23
0.0
 14
10.0
 24
10.0
 15
10.0
 25
10.0
 16
0.0
 26
0.0
 36
1.0
 17
0.0
 27
0.0
 37
0.0
 40
297.0
 41
1.92798353909465
 42
50.0
 43
0.0
 44
0.0
 50
0.0
 51
0.0
 71
0
 72
100
 73
1
 74
3
 75
1
 76
1
 77
0
 78
0
281
0
 65
1
110
0.0
120
0.0
130
0.0
111
1.0
121
0.0
131
0.0
112
0.0
122
1.0
132
0.0
 79
0
146
0.0
  0
ENDTAB
  0
TABLE
  2
LTYPE
  5
5
100
AcDbSymbolTable
 70
41
  0
LTYPE
  5
16
100
AcDbSymbolTableRecord
100
AcDbLinetypeTableRecord
  2
Continuous
 70
0
  3
Solid line
 72
65
 73
0
 40
0.0
  0
LTYPE
  5
31
100
AcDbSymbolTableRecord
100
AcDbLinetypeTableRecord
  2
ACAD_ISO15W100
 70
0
  3
ISO double-dash triple-dot __ __ . . . __ __ . .
 72
65
 73
10
 40
39.0
 49
12.0
 74
0
 49
-3.0
 74
0
 49
12.0
 74
0
 49
-3.0
 74
0
 49
0.0
 74
0
 49
-3.0
 74
0
 49
0.0
 74
0
 49
-3.0
 74
0
 49
0.0
 74
0
 49
-3.0
 74
0
  0
LTYPE
  5
32
100
AcDbSymbolTableRecord
100
AcDbLinetypeTableRecord
  2
DIVIDE
 70
0
  3
Divide ____ . . ____ . . ____ . . ____ . . ____
 72
65
 73
6
 40
31.75
 49
12.699999999999999
 74
0
 49
-6.3499999999999996
 74
0
 49
0.0
 74
0
 49
-6.3499999999999996
 74
0
 49
0.0
 74
0
 49
-6.3499999999999996
 74
0
  0
LTYPE
  5
33
100
AcDbSymbolTableRecord
100
AcDbLinetypeTableRecord
  2
ACAD_ISO10W100
 70
0
  3
ISO dash dot __ . __ . __ . __ . __ . __ . __ . 
 72
65
 73
4
 40
18.0
 49
12.0
 74
0
 49
-3.0
 74
0
 49
0.0
 74
0
 49
-3.0
 74
0
  0
LTYPE
  5
34
100
AcDbSymbolTableRecord
100
AcDbLinetypeTableRecord
  2
ACAD_ISO04W100
 70
0
  3
ISO long-dash dot ____ . ____ . ____ . ____ . _
 72
65
 73
4
 40
30.0
 49
24.0
 74
0
 49
-3.0
 74
0
 49
0.0
 74
0
 49
-3.0
 74
0
  0
LTYPE
  5
14
100
AcDbSymbolTableRecord
100
AcDbLinetypeTableRecord
  2
ByBlock
 70
0
  3

 72
65
 73
0
 40
0.0
  0
LTYPE
  5
35
100
AcDbSymbolTableRecord
100
AcDbLinetypeTableRecord
  2
CENTER2
 70
0
  3
Center (.5x) ___ _ ___ _ ___ _ ___ _ ___ _ ___
 72
65
 73
4
 40
28.575000000000003
 49
19.050000000000001
 74
0
 49
-3.1749999999999998
 74
0
 49
3.1749999999999998
 74
0
 49
-3.1749999999999998
 74
0
  0
LTYPE
  5
36
100
AcDbSymbolTableRecord
100
AcDbLinetypeTableRecord
  2
ACAD_ISO11W100
 70
0
  3
ISO double-dash dot __ __ . __ __ . __ __ . __ _
 72
65
 73
6
 40
33.0
 49
12.0
 74
0
 49
-3.0
 74
0
 49
12.0
 74
0
 49
-3.0
 74
0
 49
0.0
 74
0
 49
-3.0
 74
0
  0
LTYPE
  5
37
100
AcDbSymbolTableRecord
100
AcDbLinetypeTableRecord
  2
HIDDEN2
 70
0
  3
Hidden (.5x) _ _ _ _ _ _ _ _ _ _ _ _ _ _ _ _ _ 
 72
65
 73
2
 40
4.7624999999999993
 49
3.1749999999999998
 74
0
 49
-1.5874999999999999
 74
0
  0
LTYPE
  5
38
100
AcDbSymbolTableRecord
100
AcDbLinetypeTableRecord
  2
BORDERX2
 70
0
  3
Border (2x) ____  ____  .  ____  ____  .  ___
 72
65
 73
6
 40
88.899999999999991
 49
25.399999999999999
 74
0
 49
-12.699999999999999
 74
0
 49
25.399999999999999
 74
0
 49
-12.699999999999999
 74
0
 49
0.0
 74
0
 49
-12.699999999999999
 74
0
  0
LTYPE
  5
39
100
AcDbSymbolTableRecord
100
AcDbLinetypeTableRecord
  2
ACAD_ISO05W100
 70
0
  3
ISO long-dash double-dot ____ .. ____ .. ____ . 
 72
65
 73
6
 40
33.0
 49
24.0
 74
0
 49
-3.0
 74
0
 49
0.0
 74
0
 49
-3.0
 74
0
 49
0.0
 74
0
 49
-3.0
 74
0
  0
LTYPE
  5
3A
100
AcDbSymbolTableRecord
100
AcDbLinetypeTableRecord
  2
DASHDOTX2
 70
0
  3
Dash dot (2x) ____  .  ____  .  ____  .  ___
 72
65
 73
4
 40
50.799999999999997
 49
25.399999999999999
 74
0
 49
-12.699999999999999
 74
0
 49
0.0
 74
0
 49
-12.699999999999999
 74
0
  0
LTYPE
  5
3B
100
AcDbSymbolTableRecord
100
AcDbLinetypeTableRecord
  2
HIDDENX2
 70
0
  3
Hidden (2x) ____ ____ ____ ____ ____ ____ ____ 
 72
65
 73
2
 40
19.049999999999997
 49
12.699999999999999
 74
0
 49
-6.3499999999999996
 74
0
  0
LTYPE
  5
3C
100
AcDbSymbolTableRecord
100
AcDbLinetypeTableRecord
  2
CENTERX2
 70
0
  3
Center (2x) ________  __  ________  __  _____
 72
65
 73
4
 40
0.7999999999999999
 49
0.5
 74
0
 49
-0.1
 74
0
 49
0.1
 74
0
 49
-0.1
 74
0
  0
LTYPE
  5
3D
100
AcDbSymbolTableRecord
100
AcDbLinetypeTableRecord
  2
BORDER2
 70
0
  3
Border (.5x) __.__.__.__.__.__.__.__.__.__.__.
 72
65
 73
6
 40
22.224999999999998
 49
6.3499999999999996
 74
0
 49
-3.1749999999999998
 74
0
 49
6.3499999999999996
 74
0
 49
-3.1749999999999998
 74
0
 49
0.0
 74
0
 49
-3.1749999999999998
 74
0
  0
LTYPE
  5
3E
100
AcDbSymbolTableRecord
100
AcDbLinetypeTableRecord
  2
DASHDOT2
 70
0
  3
Dash dot (.5x) _._._._._._._._._._._._._._._.
 72
65
 73
4
 40
12.699999999999999
 49
6.3499999999999996
 74
0
 49
-3.1749999999999998
 74
0
 49
0.0
 74
0
 49
-3.1749999999999998
 74
0
  0
LTYPE
  5
3F
100
AcDbSymbolTableRecord
100
AcDbLinetypeTableRecord
  2
ACAD_ISO12W100
 70
0
  3
ISO dash double-dot __ . . __ . . __ . . __ . . 
 72
65
 73
6
 40
21.0
 49
12.0
 74
0
 49
-3.0
 74
0
 49
0.0
 74
0
 49
-3.0
 74
0
 49
0.0
 74
0
 49
-3.0
 74
0
  0
LTYPE
  5
40
100
AcDbSymbolTableRecord
100
AcDbLinetypeTableRecord
  2
ACAD_ISO07W100
 70
0
  3
ISO dot . . . . . . . . . . . . . . . . . . . . 
 72
65
 73
2
 40
3.0
 49
0.0
 74
0
 49
-3.0
 74
0
  0
LTYPE
  5
41
100
AcDbSymbolTableRecord
100
AcDbLinetypeTableRecord
  2
HIDDEN
 70
0
  3
Hidden __ __ __ __ __ __ __ __ __ __ __ __ __ __
 72
65
 73
2
 40
0.075
 49
0.05
 74
0
 49
-0.025
 74
0
  0
LTYPE
  5
42
100
AcDbSymbolTableRecord
100
AcDbLinetypeTableRecord
  2
ACAD_ISO06W100
 70
0
  3
ISO long-dash triple-dot ____ ... ____ ... ____
 72
65
 73
8
 40
36.0
 49
24.0
 74
0
 49
-3.0
 74
0
 49
0.0
 74
0
 49
-3.0
 74
0
 49
0.0
 74
0
 49
-3.0
 74
0
 49
0.0
 74
0
 49
-3.0
 74
0
  0
LTYPE
  5
43
100
AcDbSymbolTableRecord
100
AcDbLinetypeTableRecord
  2
CENTER
 70
0
  3
Center ____ _ ____ _ ____ _ ____ _ ____ _ ____
 72
65
 73
4
 40
0.4
 49
0.25
 74
0
 49
-0.05
 74
0
 49
0.05
 74
0
 49
-0.05
 74
0
  0
LTYPE
  5
44
100
AcDbSymbolTableRecord
100
AcDbLinetypeTableRecord
  2
DOTX2
 70
0
  3
Dot (2x) .  .  .  .  .  .  .  .  .  .  .  .  .  .
 72
65
 73
2
 40
12.699999999999999
 49
0.0
 74
0
 49
-12.699999999999999
 74
0
  0
LTYPE
  5
45
100
AcDbSymbolTableRecord
100
AcDbLinetypeTableRecord
  2
PHANTOM
 70
0
  3
Phantom ______  __  __  ______  __  __  ______
 72
65
 73
6
 40
0.4999999999999999
 49
0.25
 74
0
 49
-0.05
 74
0
 49
0.05
 74
0
 49
-0.05
 74
0
 49
0.05
 74
0
 49
-0.05
 74
0
  0
LTYPE
  5
46
100
AcDbSymbolTableRecord
100
AcDbLinetypeTableRecord
  2
ACAD_ISO08W100
 70
0
  3
ISO long-dash short-dash ____ __ ____ __ ____ _
 72
65
 73
4
 40
36.0
 49
24.0
 74
0
 49
-3.0
 74
0
 49
6.0
 74
0
 49
-3.0
 74
0
  0
LTYPE
  5
47
100
AcDbSymbolTableRecord
100
AcDbLinetypeTableRecord
  2
DASHEDX2
 70
0
  3
Dashed (2x) ____  ____  ____  ____  ____  ___
 72
65
 73
2
 40
38.099999999999994
 49
25.399999999999999
 74
0
 49
-12.699999999999999
 74
0
  0
LTYPE
  5
48
100
AcDbSymbolTableRecord
100
AcDbLinetypeTableRecord
  2
ACAD_ISO02W100
 70
0
  3
ISO dash __ __ __ __ __ __ __ __ __ __ __ __ __
 72
65
 73
2
 40
15.0
 49
12.0
 74
0
 49
-3.0
 74
0
  0
LTYPE
  5
49
100
AcDbSymbolTableRecord
100
AcDbLinetypeTableRecord
  2
PHANTOM2
 70
0
  3
Phantom (.5x) ___ _ _ ___ _ _ ___ _ _ ___ _ _
 72
65
 73
6
 40
31.750000000000004
 49
15.875
 74
0
 49
-3.1749999999999998
 74
0
 49
3.1749999999999998
 74
0
 49
-3.1749999999999998
 74
0
 49
3.1749999999999998
 74
0
 49
-3.1749999999999998
 74
0
  0
LTYPE
  5
4A
100
AcDbSymbolTableRecord
100
AcDbLinetypeTableRecord
  2
DASHED2
 70
0
  3
Dashed (.5x) _ _ _ _ _ _ _ _ _ _ _ _ _ _ _ _ _ 
 72
65
 73
2
 40
9.5249999999999986
 49
6.3499999999999996
 74
0
 49
-3.1749999999999998
 74
0
  0
LTYPE
  5
4B
100
AcDbSymbolTableRecord
100
AcDbLinetypeTableRecord
  2
ACAD_ISO09W100
 70
0
  3
ISO long-dash double-short-dash ____ __ __ ____
 72
65
 73
6
 40
45.0
 49
24.0
 74
0
 49
-3.0
 74
0
 49
6.0
 74
0
 49
-3.0
 74
0
 49
6.0
 74
0
 49
-3.0
 74
0
  0
LTYPE
  5
4C
100
AcDbSymbolTableRecord
100
AcDbLinetypeTableRecord
  2
ACAD_ISO13W100
 70
0
  3
ISO double-dash double-dot __ __ . . __ __ . . _
 72
65
 73
8
 40
36.0
 49
12.0
 74
0
 49
-3.0
 74
0
 49
12.0
 74
0
 49
-3.0
 74
0
 49
0.0
 74
0
 49
-3.0
 74
0
 49
0.0
 74
0
 49
-3.0
 74
0
  0
LTYPE
  5
4D
100
AcDbSymbolTableRecord
100
AcDbLinetypeTableRecord
  2
DOT2
 70
0
  3
Dot (.5x) ........................................
 72
65
 73
2
 40
0.175
 49
0.1
 74
0
 49
0.075
 74
0
  0
LTYPE
  5
4E
100
AcDbSymbolTableRecord
100
AcDbLinetypeTableRecord
  2
DASHED
 70
0
  3
Dashed __ __ __ __ __ __ __ __ __ __ __ __ __ _
 72
65
 73
2
 40
19.049999999999997
 49
12.699999999999999
 74
0
 49
-6.3499999999999996
 74
0
  0
LTYPE
  5
4F
100
AcDbSymbolTableRecord
100
AcDbLinetypeTableRecord
  2
ACAD_ISO14W100
 70
0
  3
ISO dash triple-dot __ . . . __ . . . __ . . . _
 72
65
 73
8
 40
24.0
 49
12.0
 74
0
 49
-3.0
 74
0
 49
0.0
 74
0
 49
-3.0
 74
0
 49
0.0
 74
0
 49
-3.0
 74
0
 49
0.0
 74
0
 49
-3.0
 74
0
  0
LTYPE
  5
50
100
AcDbSymbolTableRecord
100
AcDbLinetypeTableRecord
  2
PHANTOMX2
 70
0
  3
Phantom (2x) ____________    ____    ____   _
 72
65
 73
6
 40
127.00000000000001
 49
63.5
 74
0
 49
-12.699999999999999
 74
0
 49
12.699999999999999
 74
0
 49
-12.699999999999999
 74
0
 49
12.699999999999999
 74
0
 49
-12.699999999999999
 74
0
  0
LTYPE
  5
51
100
AcDbSymbolTableRecord
100
AcDbLinetypeTableRecord
  2
DIVIDEX2
 70
0
  3
Divide (2x) ________  .  .  ________  .  .  _
 72
65
 73
6
 40
63.5
 49
25.399999999999999
 74
0
 49
-12.699999999999999
 74
0
 49
0.0
 74
0
 49
-12.699999999999999
 74
0
 49
0.0
 74
0
 49
-12.699999999999999
 74
0
  0
LTYPE
  5
52
100
AcDbSymbolTableRecord
100
AcDbLinetypeTableRecord
  2
BORDER
 70
0
  3
Border __ __ . __ __ . __ __ . __ __ . __ __ .
 72
65
 73
6
 40
44.449999999999996
 49
12.699999999999999
 74
0
 49
-6.3499999999999996
 74
0
 49
12.699999999999999
 74
0
 49
-6.3499999999999996
 74
0
 49
0.0
 74
0
 49
-6.3499999999999996
 74
0
  0
LTYPE
  5
53
100
AcDbSymbolTableRecord
100
AcDbLinetypeTableRecord
  2
DIVIDE2
 70
0
  3
Divide (.5x) __..__..__..__..__..__..__..__.._
 72
65
 73
6
 40
15.875
 49
6.3499999999999996
 74
0
 49
-3.1749999999999998
 74
0
 49
0.0
 74
0
 49
-3.1749999999999998
 74
0
 49
0.0
 74
0
 49
-3.1749999999999998
 74
0
  0
LTYPE
  5
54
100
AcDbSymbolTableRecord
100
AcDbLinetypeTableRecord
  2
DOT
 70
0
  3
Dot . . . . . . . . . . . . . . . . . . . . . . . .
 72
65
 73
2
 40
6.3499999999999996
 49
0.0
 74
0
 49
-6.3499999999999996
 74
0
  0
LTYPE
  5
55
100
AcDbSymbolTableRecord
100
AcDbLinetypeTableRecord
  2
DASHDOT
 70
0
  3
Dash dot __ . __ . __ . __ . __ . __ . __ . __
 72
65
 73
4
 40
25.399999999999999
 49
12.699999999999999
 74
0
 49
-6.3499999999999996
 74
0
 49
0.0
 74
0
 49
-6.3499999999999996
 74
0
  0
LTYPE
  5
56
100
AcDbSymbolTableRecord
100
AcDbLinetypeTableRecord
  2
ACAD_ISO03W100
 70
0
  3
ISO dash space __    __    __    __    __    __
 72
65
 73
2
 40
30.0
 49
12.0
 74
0
 49
-18.0
 74
0
  0
LTYPE
  5
15
100
AcDbSymbolTableRecord
100
AcDbLinetypeTableRecord
  2
ByLayer
 70
0
  3

 72
65
 73
0
 40
0.0
  0
ENDTAB
  0
TABLE
  2
LAYER
  5
2
100
AcDbSymbolTable
 70
2
  0
LAYER
  5
10
100
AcDbSymbolTableRecord
100
AcDbLayerTableRecord
  2
0
 70
0
 62
7
420
16777215
  6
Continuous
370
-3
390
F
  0
LAYER
  5
57
100
AcDbSymbolTableRecord
100
AcDbLayerTableRecord
  2
Cut
 70
0
 62
1
420
16711680
  6
Continuous
370
0
390
F
  0
ENDTAB
  0
TABLE
  2
STYLE
  5
3
100
AcDbSymbolTable
 70
1
  0
STYLE
  5
58
100
AcDbSymbolTableRecord
100
AcDbTextStyleTableRecord
  2
Standard
 70
0
 40
0.0
 41
1.0
 50
0.0
 71
0
 42
2.5
  3

  4

1001
ACAD
1000
txt
1071
0
  0
ENDTAB
  0
TABLE
  2
VIEW
  5
6
100
AcDbSymbolTable
 70
0
  0
ENDTAB
  0
TABLE
  2
UCS
  5
7
100
AcDbSymbolTable
 70
0
  0
ENDTAB
  0
TABLE
  2
APPID
  5
9
100
AcDbSymbolTable
 70
1
  0
APPID
  5
12
100
AcDbSymbolTableRecord
100
AcDbRegAppTableRecord
  2
ACAD
 70
0
  0
APPID
  5
59
100
AcDbSymbolTableRecord
100
AcDbRegAppTableRecord
  2
QCAD
 70
0
  0
ENDTAB
  0
TABLE
  2
DIMSTYLE
  5
A
100
AcDbSymbolTable
 70
1
100
AcDbDimStyleTable
 71
0
  0
DIMSTYLE
105
27
100
AcDbSymbolTableRecord
100
AcDbDimStyleTableRecord
  2
Standard
 41
0.2362204724
 42
0.0393700787
 43
3.75
 44
0.0393700787
 70
0
 73
0
 74
0
 77
1
 78
8
140
0.1377952756
141
2.5
143
0.03937007874016
147
0.06
171
3
172
1
271
2
272
2
274
3
278
44
283
0
284
8
340
58
  0
ENDTAB
  0
TABLE
  2
BLOCK_RECORD
  5
1
100
AcDbSymbolTable
 70
1
  0
BLOCK_RECORD
  5
1F
100
AcDbSymbolTableRecord
100
AcDbBlockTableRecord
  2
*Model_Space
340
22
  0
BLOCK_RECORD
  5
1B
100
AcDbSymbolTableRecord
100
AcDbBlockTableRecord
  2
*Paper_Space
340
1E
  0
BLOCK_RECORD
  5
23
100
AcDbSymbolTableRecord
100
AcDbBlockTableRecord
  2
*Paper_Space0
340
26
  0
ENDTAB
  0
ENDSEC
  0
SECTION
  2
BLOCKS
  0
BLOCK
  5
20
100
AcDbEntity
  8
0
100
AcDbBlockBegin
  2
*Model_Space
 70
0
 10
0.0
 20
0.0
 30
0.0
  3
*Model_Space
  1

  0
ENDBLK
  5
21
100
AcDbEntity
  8
0
100
AcDbBlockEnd
  0
BLOCK
  5
1C
100
AcDbEntity
 67
1
  8
0
100
AcDbBlockBegin
  2
*Paper_Space
 70
0
 10
0.0
 20
0.0
 30
0.0
  3
*Paper_Space
  1

  0
ENDBLK
  5
1D
100
AcDbEntity
 67
1
  8
0
100
AcDbBlockEnd
  0
BLOCK
  5
24
100
AcDbEntity
  8
0
100
AcDbBlockBegin
  2
*Paper_Space0
 70
0
 10
0.0
 20
0.0
 30
0.0
  3
*Paper_Space0
  1

  0
ENDBLK
  5
25
100
AcDbEntity
  8
0
100
AcDbBlockEnd
  0
ENDSEC
  0
SECTION
  2
ENTITIES
  0
SPLINE
  5
5A
  8
Cut
 62
1
420
16711680
370
0
 48
1.0
  6
Continuous
100
AcDbEntity
100
AcDbSpline
 70
8
 71
3
 72
15
 73
11
 74
0
 40
0.2450640958166579
 40
0.2450640958166579
 40
0.2450640958166579
 40
0.2450640958166579
 40
0.317753816815124
 40
0.4545518782917486
 40
0.5766307094373427
 40
0.6839903113360848
 40
0.7766306855889356
 40
0.8545518347041186
 40
0.9177537629422879
 40
1.0
 40
1.0
 40
1.0
 40
1.0
 10
0.2167363334353337
 20
0.6643706196842586
 30
0.0
 10
0.2236562126576763
 20
0.6621689011201861
 30
0.0
 10
0.2437160280440064
 20
0.6561943414662004
 30
0.0
 10
0.2759651104532723
 20
0.6485222293188994
 30
0.0
 10
0.3121318636357225
 20
0.6428128317839807
 30
0.0
 10
0.3442298803300287
 20
0.6402497265200973
 30
0.0
 10
0.3720147349210619
 20
0.6401705038908864
 30
0.0
 10
0.3953226130217353
 20
0.6418914419567218
 30
0.0
 10
0.4173995451644857
 20
0.645238154500858
 30
0.0
 10
0.4315166869486564
 20
0.6488093693442094
 30
0.0
 10
0.4392593089333831
 20
0.6515751818952098
 30
0.0
  0
SPLINE
  5
5B
  8
Cut
 62
1
420
16711680
370
0
 48
1.0
  6
Continuous
100
AcDbEntity
100
AcDbSpline
 70
8
 71
3
 72
15
 73
11
 74
0
 40
0.0
 40
0.0
 40
0.0
 40
0.0
 40
0.2001255096455307
 40
0.2943483555884844
 40
0.3861679858723107
 40
0.4772313955314145
 40
0.5697453566694904
 40
0.6664498717020841
 40
0.7701126166497941
 40
0.9964459079772339
 40
0.9964459079772339
 40
0.9964459079772339
 40
0.9964459079772339
 10
0.4437774118341326
 20
0.6540606573676655
 30
0.0
 10
0.4540300182249656
 20
0.6620572573595833
 30
0.0
 10
0.4699999873052789
 20
0.6727450178968488
 30
0.0
 10
0.4926664385085936
 20
0.6836160787262084
 30
0.0
 10
0.5096663193596479
 20
0.6896731941922178
 30
0.0
 10
0.5271747188927897
 20
0.6936223111129842
 30
0.0
 10
0.5454026828499116
 20
0.6950935595424309
 30
0.0
 10
0.5644698760618896
 20
0.6934003773356187
 30
0.0
 10
0.5912475550579982
 20
0.6853491918628736
 30
0.0
 10
0.6088071933485508
 20
0.6716847801764434
 30
0.0
 10
0.6174035025076154
 20
0.6596306151988671
 30
0.0
  0
SPLINE
  5
5C
  8
Cut
 62
1
420
16711680
370
0
 48
1.0
  6
Continuous
100
AcDbEntity
100
AcDbSpline
 70
8
 71
3
 72
15
 73
11
 74
0
 40
0.00355409188292
 40
0.00355409188292
 40
0.00355409188292
 40
0.00355409188292
 40
0.2298873833502059
 40
0.3335501282979159
 40
0.4302546433305096
 40
0.5227686044685855
 40
0.6138320141276894
 40
0.7056516444115156
 40
0.7998744903544692
 40
1.0
 40
1.0
 40
1.0
 40
1.0
 10
0.6271589594699203
 20
0.64620338060936
 30
0.0
 10
0.6359667460111999
 20
0.6343028629321477
 30
0.0
 10
0.6435361471466785
 20
0.6133801190743173
 30
0.0
 10
0.6429185216745161
 20
0.5854250798287035
 30
0.0
 10
0.6386367469080476
 20
0.5667678794005151
 30
0.0
 10
0.6316047558665285
 20
0.5498866962679478
 30
0.0
 10
0.6224385294853746
 20
0.5344555630433447
 30
0.0
 10
0.6114246182661489
 20
0.5201594671995971
 30
0.0
 10
0.5940813064013504
 20
0.5019617336245545
 30
0.0
 10
0.5789816502523222
 20
0.4900760901035155
 30
0.0
 10
0.5682082021103985
 20
0.482796367281226
 30
0.0
  0
SPLINE
  5
5D
  8
Cut
 62
1
420
16711680
370
0
 48
1.0
  6
Continuous
100
AcDbEntity
100
AcDbSpline
 70
8
 71
3
 72
15
 73
11
 74
0
 40
0.0
 40
0.0
 40
0.0
 40
0.0
 40
0.0822462370577122
 40
0.1454481652958814
 40
0.2233693144110646
 40
0.3160096886639152
 40
0.4233692905626573
 40
0.5454481217082514
 40
0.6822461831848761
 40
0.7549359041833428
 40
0.7549359041833428
 40
0.7549359041833428
 40
0.7549359041833428
 10
0.5644482038875612
 20
0.4792674502362671
 30
0.0
 10
0.5594251580637796
 20
0.4727584622259975
 30
0.0
 10
0.5516662941926107
 20
0.4604358286178591
 30
0.0
 10
0.5416612342035704
 20
0.4404736094951167
 30
0.0
 10
0.5328219944059892
 20
0.418838299255068
 30
0.0
 10
0.5243113473488716
 20
0.3923888511031874
 30
0.0
 10
0.5168301726677665
 20
0.3610697800810052
 30
0.0
 10
0.5110839910327283
 20
0.3249088529276654
 30
0.0
 10
0.5084150887667043
 20
0.2918673399215273
 30
0.0
 10
0.5078984087992212
 20
0.2709430813156917
 30
0.0
 10
0.5078540073079041
 20
0.263681516636178
 30
0.0
  0
SPLINE
  5
5E
  8
Cut
 62
1
420
16711680
370
0
 48
1.0
  6
Continuous
100
AcDbEntity
100
AcDbSpline
 70
8
 71
3
 72
15
 73
11
 74
0
 40
0.2450640958166577
 40
0.2450640958166577
 40
0.2450640958166577
 40
0.2450640958166577
 40
0.317753816815124
 40
0.4545518782917486
 40
0.5766307094373427
 40
0.6839903113360848
 40
0.7766306855889356
 40
0.8545518347041186
 40
0.9177537629422879
 40
1.0
 40
1.0
 40
1.0
 40
1.0
 10
0.5827026832208783
 20
0.2093007704205111
 30
0.0
 10
0.5895951208124359
 20
0.2115869456398839
 30
0.0
 10
0.6093356104175554
 20
0.2185442889936969
 30
0.0
 10
0.6399352205137671
 20
0.2312929549239111
 30
0.0
 10
0.6725506381402338
 20
0.2479322394344656
 30
0.0
 10
0.700025034605842
 20
0.2647253845583627
 30
0.0
 10
0.7225500200493227
 20
0.2809928198706923
 30
0.0
 10
0.7403949475203805
 20
0.2960851150220265
 30
0.0
 10
0.7562884125304223
 20
0.3117691574748907
 30
0.0
 10
0.7656103127281273
 20
0.3229561787189834
 30
0.0
 10
0.7702485216667085
 20
0.3297447670926961
 30
0.0
  0
SPLINE
  5
5F
  8
Cut
 62
1
420
16711680
370
0
 48
1.0
  6
Continuous
100
AcDbEntity
100
AcDbSpline
 70
8
 71
3
 72
15
 73
11
 74
0
 40
0.0
 40
0.0
 40
0.0
 40
0.0
 40
0.2001255096455307
 40
0.2943483555884844
 40
0.3861679858723107
 40
0.4772313955314145
 40
0.5697453566694904
 40
0.6664498717020841
 40
0.7701126166497941
 40
0.9964459079774019
 40
0.9964459079774019
 40
0.9964459079774019
 40
0.9964459079774019
 10
0.7724428178681055
 20
0.3344112332424154
 30
0.0
 10
0.7760370671311953
 20
0.3469069493671866
 30
0.0
 10
0.7826749354929732
 20
0.3649404415786194
 30
0.0
 10
0.7946226304863533
 20
0.3870583202755703
 30
0.0
 10
0.8048155398548524
 20
0.4019509088794423
 30
0.0
 10
0.8166588999358654
 20
0.4154369906179412
 30
0.0
 10
0.8305408544207437
 20
0.427341383993626
 30
0.0
 10
0.8469617652948728
 20
0.4371789857863534
 30
0.0
 10
0.8733577307570031
 20
0.4464049647185762
 30
0.0
 10
0.895595516219686
 20
0.4456715198688913
 30
0.0
 10
0.9096353368207987
 20
0.4409722792968678
 30
0.0
  0
SPLINE
  5
60
  8
Cut
 62
1
420
16711680
370
0
 48
1.0
  6
Continuous
100
AcDbEntity
100
AcDbSpline
 70
8
 71
3
 72
15
 73
11
 74
0
 40
0.0035540918828537
 40
0.0035540918828537
 40
0.0035540918828537
 40
0.0035540918828537
 40
0.2298873833502059
 40
0.3335501282979159
 40
0.4302546433305096
 40
0.5227686044685855
 40
0.6138320141276894
 40
0.7056516444115156
 40
0.7998744903544692
 40
1.0
 40
1.0
 40
1.0
 40
1.0
 10
0.9254199977619412
 20
0.4358435320583272
 30
0.0
 10
0.9395405955419796
 20
0.4313928980499083
 30
0.0
 10
0.9579624499749535
 20
0.4189152250560886
 30
0.0
 10
0.973894340267647
 20
0.3959360920839876
 30
0.0
 10
0.9813967389762425
 20
0.3783253358087556
 30
0.0
 10
0.9856302492059327
 20
0.3605348711408951
 30
0.0
 10
0.9872848088248734
 20
0.342663049433711
 30
0.0
 10
0.9867774017762978
 20
0.3246234503581865
 30
0.0
 10
0.9834427271594888
 20
0.299707031696832
 30
0.0
 10
0.9782130547013794
 20
0.2812159889001427
 30
0.0
 10
0.9737760657822647
 20
0.2689940954884107
 30
0.0
  0
SPLINE
  5
61
  8
Cut
 62
1
420
16711680
370
0
 48
1.0
  6
Continuous
100
AcDbEntity
100
AcDbSpline
 70
8
 71
3
 72
15
 73
11
 74
0
 40
0.0
 40
0.0
 40
0.0
 40
0.0
 40
0.0822462370577122
 40
0.1454481652958814
 40
0.2233693144110646
 40
0.3160096886639152
 40
0.4233692905626573
 40
0.5454481217082514
 40
0.6822461831848761
 40
0.754935904183342
 40
0.754935904183342
 40
0.754935904183342
 40
0.754935904183342
 10
0.9728084087167601
 20
0.2639290701232698
 30
0.0
 10
0.9725705664415818
 20
0.2557107159499709
 30
0.0
 10
0.9735365760170318
 20
0.2411809501875132
 30
0.0
 10
0.9771758104595365
 20
0.2191503489619185
 30
0.0
 10
0.982741631533811
 20
0.1964514405046499
 30
0.0
 10
0.9914029689864258
 20
0.1700509546302996
 30
0.0
 10
1.0037594595938637
 20
0.140315969777941
 30
0.0
 10
1.0203655606883084
 20
0.1076836443564653
 30
0.0
 10
1.0376276874572075
 20
0.07938375742286
 30
0.0
 10
1.0495086552065245
 20
0.0621519797510015
 30
0.0
 10
1.0537409742726596
 20
0.0562511519777461
 30
0.0
  0
SPLINE
  5
62
  8
Cut
 62
1
420
16711680
370
0
 48
1.0
  6
Continuous
100
AcDbEntity
100
AcDbSpline
 70
8
 71
3
 72
15
 73
11
 74
0
 40
0.2450640958166577
 40
0.2450640958166577
 40
0.2450640958166577
 40
0.2450640958166577
 40
0.317753816815124
 40
0.4545518782917486
 40
0.5766307094373427
 40
0.6839903113360848
 40
0.7766306855889356
 40
0.8545518347041186
 40
0.9177537629422879
 40
1.0
 40
1.0
 40
1.0
 40
1.0
 10
1.1462590257269472
 20
0.0562511519777461
 30
0.0
 10
1.150491344793082
 20
0.0621519797510016
 30
0.0
 10
1.1623723125423993
 20
0.0793837574228601
 30
0.0
 10
1.1796344393112981
 20
0.1076836443564654
 30
0.0
 10
1.196240540405743
 20
0.140315969777941
 30
0.0
 10
1.2085970310131808
 20
0.1700509546302997
 30
0.0
 10
1.2172583684657956
 20
0.1964514405046501
 30
0.0
 10
1.2228241895400702
 20
0.2191503489619187
 30
0.0
 10
1.2264634239825749
 20
0.2411809501875132
 30
0.0
 10
1.2274294335580249
 20
0.2557107159499712
 30
0.0
 10
1.2271915912828464
 20
0.2639290701232699
 30
0.0
  0
SPLINE
  5
63
  8
Cut
 62
1
420
16711680
370
0
 48
1.0
  6
Continuous
100
AcDbEntity
100
AcDbSpline
 70
8
 71
3
 72
15
 73
11
 74
0
 40
0.0
 40
0.0
 40
0.0
 40
0.0
 40
0.2001255096455307
 40
0.2943483555884844
 40
0.3861679858723107
 40
0.4772313955314145
 40
0.5697453566694904
 40
0.6664498717020841
 40
0.7701126166497941
 40
0.9964459080901085
 40
0.9964459080901085
 40
0.9964459080901085
 40
0.9964459080901085
 10
1.2262239342173418
 20
0.2689940954884107
 30
0.0
 10
1.2217869452982273
 20
0.2812159889001429
 30
0.0
 10
1.2165572728401177
 20
0.299707031696832
 30
0.0
 10
1.2132225982233089
 20
0.3246234503581865
 30
0.0
 10
1.2127151911747334
 20
0.3426630494337112
 30
0.0
 10
1.2143697507936739
 20
0.3605348711408951
 30
0.0
 10
1.2186032610233641
 20
0.3783253358087557
 30
0.0
 10
1.2261056597319597
 20
0.3959360920839877
 30
0.0
 10
1.2420375500236436
 20
0.4189152250546326
 30
0.0
 10
1.2604594044546082
 20
0.4313928980478635
 30
0.0
 10
1.2745800022326048
 20
0.4358435320567321
 30
0.0
  0
SPLINE
  5
64
  8
Cut
 62
1
420
16711680
370
0
 48
1.0
  6
Continuous
100
AcDbEntity
100
AcDbSpline
 70
8
 71
3
 72
15
 73
11
 74
0
 40
0.0035540918830322
 40
0.0035540918830322
 40
0.0035540918830322
 40
0.0035540918830322
 40
0.2298873833502059
 40
0.3335501282979159
 40
0.4302546433305096
 40
0.5227686044685855
 40
0.6138320141276894
 40
0.7056516444115156
 40
0.7998744903544692
 40
1.0
 40
1.0
 40
1.0
 40
1.0
 10
1.2903646631528811
 20
0.4409722792880098
 30
0.0
 10
1.3044044837611561
 20
0.4456715198681059
 30
0.0
 10
1.3266422692340158
 20
0.4464049647214283
 30
0.0
 10
1.3530382347047796
 20
0.4371789857861874
 30
0.0
 10
1.3694591455789085
 20
0.4273413839934599
 30
0.0
 10
1.3833411000637865
 20
0.415436990617775
 30
0.0
 10
1.3951844601447996
 20
0.4019509088792758
 30
0.0
 10
1.4053773695132983
 20
0.3870583202754038
 30
0.0
 10
1.4173250645066782
 20
0.3649404415784524
 30
0.0
 10
1.4239629328684558
 20
0.3469069493670195
 30
0.0
 10
1.4275571821315451
 20
0.3344112332422484
 30
0.0
  0
SPLINE
  5
65
  8
Cut
 62
1
420
16711680
370
0
 48
1.0
  6
Continuous
100
AcDbEntity
100
AcDbSpline
 70
8
 71
3
 72
15
 73
11
 74
0
 40
0.0
 40
0.0
 40
0.0
 40
0.0
 40
0.0822462370577122
 40
0.1454481652958814
 40
0.2233693144110646
 40
0.3160096886639152
 40
0.4233692905626573
 40
0.5454481217082514
 40
0.6822461831848761
 40
0.7549359041833427
 40
0.7549359041833427
 40
0.7549359041833427
 40
0.7549359041833427
 10
1.4297514783329421
 20
0.3297447670925292
 30
0.0
 10
1.4343896872715234
 20
0.3229561787188164
 30
0.0
 10
1.4437115874692281
 20
0.3117691574747236
 30
0.0
 10
1.4596050524792699
 20
0.2960851150218591
 30
0.0
 10
1.4774499799503276
 20
0.2809928198705245
 30
0.0
 10
1.4999749653938079
 20
0.2647253845581947
 30
0.0
 10
1.527449361859416
 20
0.2479322394342973
 30
0.0
 10
1.5600647794858824
 20
0.2312929549237422
 30
0.0
 10
1.590664389582094
 20
0.2185442889935279
 30
0.0
 10
1.6104048791872132
 20
0.2115869456397145
 30
0.0
 10
1.617297316778771
 20
0.2093007704203416
 30
0.0
  0
SPLINE
  5
66
  8
Cut
 62
1
420
16711680
370
0
 48
1.0
  6
Continuous
100
AcDbEntity
100
AcDbSpline
 70
8
 71
3
 72
15
 73
11
 74
0
 40
0.2450640958166581
 40
0.2450640958166581
 40
0.2450640958166581
 40
0.2450640958166581
 40
0.317753816815124
 40
0.4545518782917486
 40
0.5766307094373427
 40
0.6839903113360848
 40
0.7766306855889356
 40
0.8545518347041186
 40
0.9177537629422879
 40
1.0
 40
1.0
 40
1.0
 40
1.0
 10
1.6921459926917457
 20
0.2636815166360076
 30
0.0
 10
1.6921015912004287
 20
0.2709430813155211
 30
0.0
 10
1.6915849112329462
 20
0.2918673399213567
 30
0.0
 10
1.6889160089669224
 20
0.3249088529274948
 30
0.0
 10
1.6831698273318847
 20
0.3610697800808348
 30
0.0
 10
1.6756886526507802
 20
0.3923888511030171
 30
0.0
 10
1.6671780055936629
 20
0.4188382992548979
 30
0.0
 10
1.6583387657960822
 20
0.4404736094949466
 30
0.0
 10
1.6483337058070422
 20
0.4604358286176892
 30
0.0
 10
1.6405748419358734
 20
0.4727584622258277
 30
0.0
 10
1.6355517961120918
 20
0.4792674502360973
 30
0.0
  0
SPLINE
  5
67
  8
Cut
 62
1
420
16711680
370
0
 48
1.0
  6
Continuous
100
AcDbEntity
100
AcDbSpline
 70
8
 71
3
 72
15
 73
11
 74
0
 40
0.0
 40
0.0
 40
0.0
 40
0.0
 40
0.2001255096455307
 40
0.2943483555884844
 40
0.3861679858723107
 40
0.4772313955314145
 40
0.5697453566694904
 40
0.6664498717020841
 40
0.7701126166497941
 40
0.9964459079773793
 40
0.9964459079773793
 40
0.9964459079773793
 40
0.9964459079773793
 10
1.6317917978892544
 20
0.4827963672810562
 30
0.0
 10
1.6210183497473309
 20
0.4900760901033462
 30
0.0
 10
1.605918693598303
 20
0.5019617336243853
 30
0.0
 10
1.5885753817335049
 20
0.5201594671994279
 30
0.0
 10
1.5775614705142793
 20
0.534455563043176
 30
0.0
 10
1.5683952441331255
 20
0.549886696267779
 30
0.0
 10
1.5613632530916066
 20
0.5667678794003463
 30
0.0
 10
1.5570814783251385
 20
0.585425079828535
 30
0.0
 10
1.5564638528531785
 20
0.6133801190649963
 30
0.0
 10
1.5640332539820467
 20
0.634302862914264
 30
0.0
 10
1.5728410405134257
 20
0.646203380587155
 30
0.0
  0
SPLINE
  5
68
  8
Cut
 62
1
420
16711680
370
0
 48
1.0
  6
Continuous
100
AcDbEntity
100
AcDbSpline
 70
8
 71
3
 72
15
 73
11
 74
0
 40
0.0035540918827952
 40
0.0035540918827952
 40
0.0035540918827952
 40
0.0035540918827952
 40
0.2298873833502059
 40
0.3335501282979159
 40
0.4302546433305096
 40
0.5227686044685855
 40
0.6138320141276894
 40
0.7056516444115156
 40
0.7998744903544692
 40
1.0
 40
1.0
 40
1.0
 40
1.0
 10
1.5825964974763236
 20
0.6596306151761661
 30
0.0
 10
1.5911928066364407
 20
0.6716847801645145
 30
0.0
 10
1.6087524449331061
 20
0.6853491918598951
 30
0.0
 10
1.6355301239379987
 20
0.6934003773352808
 30
0.0
 10
1.6545973171499764
 20
0.6950935595420928
 30
0.0
 10
1.6728252811070983
 20
0.6936223111126458
 30
0.0
 10
1.6903336806402403
 20
0.6896731941918792
 30
0.0
 10
1.7073335614912943
 20
0.6836160787258696
 30
0.0
 10
1.7300000126946089
 20
0.6727450178965098
 30
0.0
 10
1.7459699817749224
 20
0.6620572573592438
 30
0.0
 10
1.7562225881657549
 20
0.6540606573673261
 30
0.0
  0
SPLINE
  5
69
  8
Cut
 62
1
420
16711680
370
0
 48
1.0
  6
Continuous
100
AcDbEntity
100
AcDbSpline
 70
8
 71
3
 72
15
 73
11
 74
0
 40
0.0
 40
0.0
 40
0.0
 40
0.0
 40
0.0822462370577122
 40
0.1454481652958814
 40
0.2233693144110646
 40
0.3160096886639152
 40
0.4233692905626573
 40
0.5454481217082514
 40
0.6822461831848761
 40
0.7549359041833419
 40
0.7549359041833419
 40
0.7549359041833419
 40
0.7549359041833419
 10
1.7607406910665047
 20
0.6515751818948702
 30
0.0
 10
1.768483313051231
 20
0.6488093693438696
 30
0.0
 10
1.7826004548354017
 20
0.6452381545005179
 30
0.0
 10
1.8046773869781521
 20
0.6418914419563816
 30
0.0
 10
1.8279852650788255
 20
0.6401705038905459
 30
0.0
 10
1.8557701196698588
 20
0.6402497265197564
 30
0.0
 10
1.887868136364165
 20
0.6428128317836395
 30
0.0
 10
1.9240348895466153
 20
0.6485222293185575
 30
0.0
 10
1.9562839719558811
 20
0.6561943414658581
 30
0.0
 10
1.9763437873422114
 20
0.6621689011198437
 30
0.0
 10
1.983263666564554
 20
0.6643706196839159
 30
0.0
  0
SPLINE
  5
6A
  8
Cut
 62
1
420
16711680
370
0
 48
1.0
  6
Continuous
100
AcDbEntity
100
AcDbSpline
 70
8
 71
3
 72
15
 73
11
 74
0
 40
0.2450640958166595
 40
0.2450640958166595
 40
0.2450640958166595
 40
0.2450640958166595
 40
0.317753816815124
 40
0.4545518782917486
 40
0.5766307094373427
 40
0.6839903113360848
 40
0.7766306855889356
 40
0.8545518347041186
 40
0.9177537629422879
 40
1.0
 40
1.0
 40
1.0
 40
1.0
 10
2.0118533167503854
 20
0.7523605153944467
 30
0.0
 10
2.007549154562148
 20
0.75820914608415
 30
0.0
 10
1.9948321810641376
 20
0.7748335300259256
 30
0.0
 10
1.9732516797161608
 20
0.7999959341759734
 30
0.0
 10
1.9473480614306944
 20
0.825873217953311
 30
0.0
 10
1.9228867759134536
 20
0.8468135545109152
 30
0.0
 10
1.9004549222561691
 20
0.8632091747299859
 30
0.0
 10
1.8805869107546975
 20
0.8755169335982649
 30
0.0
 10
1.8607591491904447
 20
0.8857858814041411
 30
0.0
 10
1.8472390341573597
 20
0.8911945556505631
 30
0.0
 10
1.8393494175626115
 20
0.8935079653102459
 30
0.0
  0
SPLINE
  5
6B
  8
Cut
 62
1
420
16711680
370
0
 48
1.0
  6
Continuous
100
AcDbEntity
100
AcDbSpline
 70
8
 71
3
 72
15
 73
11
 74
0
 40
0.0
 40
0.0
 40
0.0
 40
0.0
 40
0.2001255096455307
 40
0.2943483555884844
 40
0.3861679858723107
 40
0.4772313955314145
 40
0.5697453566694904
 40
0.6664498717020841
 40
0.7701126166497941
 40
0.9964459080674044
 40
0.9964459080674044
 40
0.9964459080674044
 40
0.9964459080674044
 10
1.8342332697059263
 20
0.8941528476673274
 30
0.0
 10
1.8212384533553738
 20
0.8937097932107385
 30
0.0
 10
1.8020363689459198
 20
0.8944501256092556
 30
0.0
 10
1.7773089754879958
 20
0.8989782583905353
 30
0.0
 10
1.7599954998347904
 20
0.9040702282966212
 30
0.0
 10
1.7435096743825671
 20
0.9111665046317725
 30
0.0
 10
1.7278981636391142
 20
0.9206903680427176
 30
0.0
 10
1.7134677078262017
 20
0.9332675961952138
 30
0.0
 10
1.6965364785292054
 20
0.9555206668767662
 30
0.0
 10
1.6903621724078115
 20
0.9768967045789802
 30
0.0
 10
1.6904928726152773
 20
0.9917015126526962
 30
0.0
  0
SPLINE
  5
6C
  8
Cut
 62
1
420
16711680
370
0
 48
1.0
  6
Continuous
100
AcDbEntity
100
AcDbSpline
 70
8
 71
3
 72
15
 73
11
 74
0
 40
0.0035540918828066
 40
0.0035540918828066
 40
0.0035540918828066
 40
0.0035540918828066
 40
0.2298873833502059
 40
0.3335501282979159
 40
0.4302546433305096
 40
0.5227686044685855
 40
0.6138320141276894
 40
0.7056516444115156
 40
0.7998744903544692
 40
1.0
 40
1.0
 40
1.0
 40
1.0
 10
1.6904928726154147
 20
1.0082984873371679
 30
0.0
 10
1.6903621724059994
 20
1.0231032954142039
 30
0.0
 10
1.6965364785272814
 20
1.0444793331202717
 30
0.0
 10
1.7134677078262532
 20
1.0667324038044206
 30
0.0
 10
1.7278981636391657
 20
1.0793096319569166
 30
0.0
 10
1.7435096743826186
 20
1.0888334953678616
 30
0.0
 10
1.7599954998348424
 20
1.095929771703013
 30
0.0
 10
1.7773089754880473
 20
1.1010217416090986
 30
0.0
 10
1.8020363689459713
 20
1.105549874390378
 30
0.0
 10
1.8212384533554258
 20
1.1062902067888951
 30
0.0
 10
1.8342332697059782
 20
1.1058471523323061
 30
0.0
  0
SPLINE
  5
6D
  8
Cut
 62
1
420
16711680
370
0
 48
1.0
  6
Continuous
100
AcDbEntity
100
AcDbSpline
 70
8
 71
3
 72
15
 73
11
 74
0
 40
0.0
 40
0.0
 40
0.0
 40
0.0
 40
0.0822462370577122
 40
0.1454481652958814
 40
0.2233693144110646
 40
0.3160096886639152
 40
0.4233692905626573
 40
0.5454481217082514
 40
0.6822461831848761
 40
0.7549359041833417
 40
0.7549359041833417
 40
0.7549359041833417
 40
0.7549359041833417
 10
1.8393494175626635
 20
1.1064920346893876
 30
0.0
 10
1.8472390341574116
 20
1.1088054443490705
 30
0.0
 10
1.8607591491904965
 20
1.1142141185954921
 30
0.0
 10
1.8805869107547497
 20
1.1244830664013683
 30
0.0
 10
1.900454922256221
 20
1.1367908252696473
 30
0.0
 10
1.922886775913506
 20
1.1531864454887175
 30
0.0
 10
1.9473480614307468
 20
1.1741267820463217
 30
0.0
 10
1.9732516797162134
 20
1.200004065823659
 30
0.0
 10
1.9948321810641902
 20
1.2251664699737068
 30
0.0
 10
2.0075491545622008
 20
1.2417908539154825
 30
0.0
 10
2.0118533167504378
 20
1.2476394846051859
 30
0.0
  0
SPLINE
  5
6E
  8
Cut
 62
1
420
16711680
370
0
 48
1.0
  6
Continuous
100
AcDbEntity
100
AcDbSpline
 70
8
 71
3
 72
15
 73
11
 74
0
 40
0.2450640958166596
 40
0.2450640958166596
 40
0.2450640958166596
 40
0.2450640958166596
 40
0.317753816815124
 40
0.4545518782917486
 40
0.5766307094373427
 40
0.6839903113360848
 40
0.7766306855889356
 40
0.8545518347041186
 40
0.9177537629422879
 40
1.0
 40
1.0
 40
1.0
 40
1.0
 10
1.9832636665646073
 20
1.3356293803157167
 30
0.0
 10
1.9763437873422647
 20
1.3378310988797888
 30
0.0
 10
1.9562839719559346
 20
1.3438056585337745
 30
0.0
 10
1.924034889546669
 20
1.3514777706810752
 30
0.0
 10
1.8878681363642187
 20
1.3571871682159937
 30
0.0
 10
1.8557701196699128
 20
1.3597502734798768
 30
0.0
 10
1.8279852650788793
 20
1.3598294961090875
 30
0.0
 10
1.8046773869782058
 20
1.3581085580432521
 30
0.0
 10
1.7826004548354555
 20
1.3547618454991157
 30
0.0
 10
1.7684833130512847
 20
1.3511906306557642
 30
0.0
 10
1.7607406910665582
 20
1.3484248181047636
 30
0.0
  0
SPLINE
  5
6F
  8
Cut
 62
1
420
16711680
370
0
 48
1.0
  6
Continuous
100
AcDbEntity
100
AcDbSpline
 70
8
 71
3
 72
15
 73
11
 74
0
 40
0.0
 40
0.0
 40
0.0
 40
0.0
 40
0.2001255096455307
 40
0.2943483555884844
 40
0.3861679858723107
 40
0.4772313955314145
 40
0.5697453566694904
 40
0.6664498717020841
 40
0.7701126166497941
 40
0.9964459079774447
 40
0.9964459079774447
 40
0.9964459079774447
 40
0.9964459079774447
 10
1.7562225881658087
 20
1.3459393426323079
 30
0.0
 10
1.7459699817749756
 20
1.33794274264039
 30
0.0
 10
1.7300000126946624
 20
1.3272549821031243
 30
0.0
 10
1.7073335614913479
 20
1.3163839212737649
 30
0.0
 10
1.6903336806402935
 20
1.3103268058077551
 30
0.0
 10
1.6728252811071518
 20
1.3063776888869887
 30
0.0
 10
1.6545973171500297
 20
1.3049064404575419
 30
0.0
 10
1.635530123938052
 20
1.3065996226643539
 30
0.0
 10
1.6087524449419299
 20
1.3146508081371029
 30
0.0
 10
1.5911928066513681
 20
1.3283152198235464
 30
0.0
 10
1.5825964974923017
 20
1.3403693848011387
 30
0.0
  0
SPLINE
  5
70
  8
Cut
 62
1
420
16711680
370
0
 48
1.0
  6
Continuous
100
AcDbEntity
100
AcDbSpline
 70
8
 71
3
 72
15
 73
11
 74
0
 40
0.0035540918828803
 40
0.0035540918828803
 40
0.0035540918828803
 40
0.0035540918828803
 40
0.2298873833502059
 40
0.3335501282979159
 40
0.4302546433305096
 40
0.5227686044685855
 40
0.6138320141276894
 40
0.7056516444115156
 40
0.7998744903544692
 40
1.0
 40
1.0
 40
1.0
 40
1.0
 10
1.572841040530025
 20
1.3537966193906064
 30
0.0
 10
1.5640332539887429
 20
1.3656971370678199
 30
0.0
 10
1.5564638528532619
 20
1.3866198809256525
 30
0.0
 10
1.5570814783254245
 20
1.414574920171269
 30
0.0
 10
1.5613632530918926
 20
1.4332321205994576
 30
0.0
 10
1.5683952441334117
 20
1.4501133037320248
 30
0.0
 10
1.5775614705145655
 20
1.4655444369566279
 30
0.0
 10
1.5885753817337911
 20
1.4798405328003759
 30
0.0
 10
1.6059186935985894
 20
1.4980382663754184
 30
0.0
 10
1.6210183497476174
 20
1.5099239098964576
 30
0.0
 10
1.6317917978895411
 20
1.5172036327187473
 30
0.0
  0
SPLINE
  5
71
  8
Cut
 62
1
420
16711680
370
0
 48
1.0
  6
Continuous
100
AcDbEntity
100
AcDbSpline
 70
8
 71
3
 72
15
 73
11
 74
0
 40
0.0
 40
0.0
 40
0.0
 40
0.0
 40
0.0822462370577122
 40
0.1454481652958814
 40
0.2233693144110646
 40
0.3160096886639152
 40
0.4233692905626573
 40
0.5454481217082514
 40
0.6822461831848761
 40
0.7549359041833417
 40
0.7549359041833417
 40
0.7549359041833417
 40
0.7549359041833417
 10
1.6355517961123787
 20
1.5207325497637061
 30
0.0
 10
1.6405748419361599
 20
1.5272415377739756
 30
0.0
 10
1.6483337058073289
 20
1.5395641713821142
 30
0.0
 10
1.6583387657963691
 20
1.5595263905048569
 30
0.0
 10
1.66717800559395
 20
1.5811617007449055
 30
0.0
 10
1.6756886526510675
 20
1.6076111488967859
 30
0.0
 10
1.683169827332172
 20
1.6389302199189684
 30
0.0
 10
1.6889160089672102
 20
1.6750911470723082
 30
0.0
 10
1.691584911233234
 20
1.7081326600784466
 30
0.0
 10
1.6921015912007169
 20
1.7290569186842819
 30
0.0
 10
1.6921459926920339
 20
1.7363184833637955
 30
0.0
  0
SPLINE
  5
72
  8
Cut
 62
1
420
16711680
370
0
 48
1.0
  6
Continuous
100
AcDbEntity
100
AcDbSpline
 70
8
 71
3
 72
15
 73
11
 74
0
 40
0.2450640958166589
 40
0.2450640958166589
 40
0.2450640958166589
 40
0.2450640958166589
 40
0.317753816815124
 40
0.4545518782917486
 40
0.5766307094373427
 40
0.6839903113360848
 40
0.7766306855889356
 40
0.8545518347041186
 40
0.9177537629422879
 40
1.0
 40
1.0
 40
1.0
 40
1.0
 10
1.6172973167790592
 20
1.7906992295794619
 30
0.0
 10
1.6104048791875019
 20
1.7884130543600891
 30
0.0
 10
1.5906643895823824
 20
1.7814557110062759
 30
0.0
 10
1.5600647794861708
 20
1.7687070450760616
 30
0.0
 10
1.5274493618597045
 20
1.7520677605655071
 30
0.0
 10
1.4999749653940961
 20
1.7352746154416097
 30
0.0
 10
1.4774499799506156
 20
1.7190071801292799
 30
0.0
 10
1.4596050524795579
 20
1.7039148849779457
 30
0.0
 10
1.4437115874695161
 20
1.6882308425250812
 30
0.0
 10
1.4343896872718112
 20
1.6770438212809882
 30
0.0
 10
1.4297514783332299
 20
1.6702552329072757
 30
0.0
  0
SPLINE
  5
73
  8
Cut
 62
1
420
16711680
370
0
 48
1.0
  6
Continuous
100
AcDbEntity
100
AcDbSpline
 70
8
 71
3
 72
15
 73
11
 74
0
 40
0.0
 40
0.0
 40
0.0
 40
0.0
 40
0.2001255096455307
 40
0.2943483555884844
 40
0.3861679858723107
 40
0.4772313955314145
 40
0.5697453566694904
 40
0.6664498717020841
 40
0.7701126166497941
 40
0.9964459079774697
 40
0.9964459079774697
 40
0.9964459079774697
 40
0.9964459079774697
 10
1.4275571821318331
 20
1.6655887667575564
 30
0.0
 10
1.4239629328687435
 20
1.6530930506327852
 30
0.0
 10
1.4173250645069657
 20
1.6350595584213523
 30
0.0
 10
1.4053773695135858
 20
1.6129416797244014
 30
0.0
 10
1.3951844601450869
 20
1.5980490911205294
 30
0.0
 10
1.3833411000640738
 20
1.5845630093820304
 30
0.0
 10
1.3694591455791956
 20
1.5726586160063454
 30
0.0
 10
1.3530382347050667
 20
1.5628210142136179
 30
0.0
 10
1.326642269242932
 20
1.5535950352813934
 30
0.0
 10
1.3044044837802442
 20
1.5543284801310799
 30
0.0
 10
1.2903646631791281
 20
1.5590277207031074
 30
0.0
  0
SPLINE
  5
74
  8
Cut
 62
1
420
16711680
370
0
 48
1.0
  6
Continuous
100
AcDbEntity
100
AcDbSpline
 70
8
 71
3
 72
15
 73
11
 74
0
 40
0.0035540918824987
 40
0.0035540918824987
 40
0.0035540918824987
 40
0.0035540918824987
 40
0.2298873833502059
 40
0.3335501282979159
 40
0.4302546433305096
 40
0.5227686044685855
 40
0.6138320141276894
 40
0.7056516444115156
 40
0.7998744903544692
 40
1.0
 40
1.0
 40
1.0
 40
1.0
 10
1.2745800022380696
 20
1.5641564679416213
 30
0.0
 10
1.2604594044580044
 20
1.5686071019500343
 30
0.0
 10
1.242037550025004
 20
1.5810847749438617
 30
0.0
 10
1.2261056597322975
 20
1.6040639079159817
 30
0.0
 10
1.2186032610237019
 20
1.6216746641912136
 30
0.0
 10
1.2143697507940117
 20
1.6394651288590742
 30
0.0
 10
1.2127151911750709
 20
1.6573369505662585
 30
0.0
 10
1.2132225982236466
 20
1.6753765496417827
 30
0.0
 10
1.2165572728404555
 20
1.7002929683031374
 30
0.0
 10
1.2217869452985648
 20
1.7187840110998267
 30
0.0
 10
1.2262239342176795
 20
1.7310059045115587
 30
0.0
  0
SPLINE
  5
75
  8
Cut
 62
1
420
16711680
370
0
 48
1.0
  6
Continuous
100
AcDbEntity
100
AcDbSpline
 70
8
 71
3
 72
15
 73
11
 74
0
 40
0.0
 40
0.0
 40
0.0
 40
0.0
 40
0.0822462370577122
 40
0.1454481652958814
 40
0.2233693144110646
 40
0.3160096886639152
 40
0.4233692905626573
 40
0.5454481217082514
 40
0.6822461831848761
 40
0.754935904183342
 40
0.754935904183342
 40
0.754935904183342
 40
0.754935904183342
 10
1.2271915912831841
 20
1.7360709298766994
 30
0.0
 10
1.2274294335583624
 20
1.7442892840499984
 30
0.0
 10
1.2264634239829126
 20
1.7588190498124563
 30
0.0
 10
1.2228241895404079
 20
1.7808496510380509
 30
0.0
 10
1.2172583684661333
 20
1.8035485594953196
 30
0.0
 10
1.2085970310135186
 20
1.8299490453696698
 30
0.0
 10
1.1962405404060805
 20
1.8596840302220283
 30
0.0
 10
1.1796344393116358
 20
1.8923163556435041
 30
0.0
 10
1.1623723125427368
 20
1.9206162425771094
 30
0.0
 10
1.1504913447934197
 20
1.9378480202489679
 30
0.0
 10
1.1462590257272847
 20
1.9437488480222234
 30
0.0
  0
SPLINE
  5
76
  8
Cut
 62
1
420
16711680
370
0
 48
1.0
  6
Continuous
100
AcDbEntity
100
AcDbSpline
 70
8
 71
3
 72
15
 73
11
 74
0
 40
0.2450640958166577
 40
0.2450640958166577
 40
0.2450640958166577
 40
0.2450640958166577
 40
0.317753816815124
 40
0.4545518782917486
 40
0.5766307094373427
 40
0.6839903113360848
 40
0.7766306855889356
 40
0.8545518347041186
 40
0.9177537629422879
 40
1.0
 40
1.0
 40
1.0
 40
1.0
 10
1.0537409742729971
 20
1.9437488480222234
 30
0.0
 10
1.0495086552068622
 20
1.9378480202489676
 30
0.0
 10
1.037627687457545
 20
1.9206162425771094
 30
0.0
 10
1.0203655606886461
 20
1.8923163556435041
 30
0.0
 10
1.0037594595942012
 20
1.8596840302220283
 30
0.0
 10
0.9914029689867635
 20
1.8299490453696696
 30
0.0
 10
0.9827416315341486
 20
1.8035485594953191
 30
0.0
 10
0.977175810459874
 20
1.7808496510380507
 30
0.0
 10
0.9735365760173693
 20
1.7588190498124563
 30
0.0
 10
0.9725705664419195
 20
1.7442892840499982
 30
0.0
 10
0.9728084087170978
 20
1.7360709298766994
 30
0.0
  0
SPLINE
  5
77
  8
Cut
 62
1
420
16711680
370
0
 48
1.0
  6
Continuous
100
AcDbEntity
100
AcDbSpline
 70
8
 71
3
 72
15
 73
11
 74
0
 40
0.0
 40
0.0
 40
0.0
 40
0.0
 40
0.2001255096455307
 40
0.2943483555884844
 40
0.3861679858723107
 40
0.4772313955314145
 40
0.5697453566694904
 40
0.6664498717020841
 40
0.7701126166497941
 40
0.9964459080901118
 40
0.9964459080901118
 40
0.9964459080901118
 40
0.9964459080901118
 10
0.9737760657826025
 20
1.7310059045115587
 30
0.0
 10
0.978213054701717
 20
1.7187840110998265
 30
0.0
 10
0.9834427271598266
 20
1.7002929683031374
 30
0.0
 10
0.9867774017766354
 20
1.6753765496417827
 30
0.0
 10
0.9872848088252111
 20
1.6573369505662581
 30
0.0
 10
0.9856302492062704
 20
1.6394651288590742
 30
0.0
 10
0.9813967389765801
 20
1.6216746641912136
 30
0.0
 10
0.9738943402679847
 20
1.6040639079159815
 30
0.0
 10
0.9579624499763005
 20
1.5810847749453365
 30
0.0
 10
0.9395405955453356
 20
1.5686071019521055
 30
0.0
 10
0.9254199977673389
 20
1.5641564679432371
 30
0.0
  0
SPLINE
  5
78
  8
Cut
 62
1
420
16711680
370
0
 48
1.0
  6
Continuous
100
AcDbEntity
100
AcDbSpline
 70
8
 71
3
 72
15
 73
11
 74
0
 40
0.0035540918829465
 40
0.0035540918829465
 40
0.0035540918829465
 40
0.0035540918829465
 40
0.2298873833502059
 40
0.3335501282979159
 40
0.4302546433305096
 40
0.5227686044685855
 40
0.6138320141276894
 40
0.7056516444115156
 40
0.7998744903544692
 40
1.0
 40
1.0
 40
1.0
 40
1.0
 10
0.9096353368470844
 20
1.5590277207119669
 30
0.0
 10
0.8955955162388051
 20
1.5543284801318658
 30
0.0
 10
0.873357730765939
 20
1.5535950352785415
 30
0.0
 10
0.8469617652951701
 20
1.5628210142137844
 30
0.0
 10
0.8305408544210413
 20
1.5726586160065119
 30
0.0
 10
0.8166588999361631
 20
1.584563009382197
 30
0.0
 10
0.8048155398551504
 20
1.5980490911206964
 30
0.0
 10
0.7946226304866517
 20
1.6129416797245684
 30
0.0
 10
0.7826749354932721
 20
1.6350595584215197
 30
0.0
 10
0.7760370671314943
 20
1.6530930506329529
 30
0.0
 10
0.7724428178684051
 20
1.6655887667577238
 30
0.0
  0
SPLINE
  5
79
  8
Cut
 62
1
420
16711680
370
0
 48
1.0
  6
Continuous
100
AcDbEntity
100
AcDbSpline
 70
8
 71
3
 72
15
 73
11
 74
0
 40
0.0
 40
0.0
 40
0.0
 40
0.0
 40
0.0822462370577122
 40
0.1454481652958814
 40
0.2233693144110646
 40
0.3160096886639152
 40
0.4233692905626573
 40
0.5454481217082514
 40
0.6822461831848761
 40
0.7549359041833428
 40
0.7549359041833428
 40
0.7549359041833428
 40
0.7549359041833428
 10
0.7702485216670083
 20
1.6702552329074432
 30
0.0
 10
0.7656103127284269
 20
1.6770438212811558
 30
0.0
 10
0.7562884125307225
 20
1.6882308425252488
 30
0.0
 10
0.7403949475206808
 20
1.7039148849781136
 30
0.0
 10
0.7225500200496233
 20
1.7190071801294482
 30
0.0
 10
0.700025034606143
 20
1.735274615441778
 30
0.0
 10
0.6725506381405351
 20
1.7520677605656756
 30
0.0
 10
0.6399352205140687
 20
1.7687070450762312
 30
0.0
 10
0.6093356104178573
 20
1.781455711006446
 30
0.0
 10
0.589595120812738
 20
1.7884130543602592
 30
0.0
 10
0.5827026832211805
 20
1.7906992295796322
 30
0.0
  0
SPLINE
  5
7A
  8
Cut
 62
1
420
16711680
370
0
 48
1.0
  6
Continuous
100
AcDbEntity
100
AcDbSpline
 70
8
 71
3
 72
15
 73
11
 74
0
 40
0.2450640958166578
 40
0.2450640958166578
 40
0.2450640958166578
 40
0.2450640958166578
 40
0.317753816815124
 40
0.4545518782917486
 40
0.5766307094373427
 40
0.6839903113360848
 40
0.7766306855889356
 40
0.8545518347041186
 40
0.9177537629422879
 40
1.0
 40
1.0
 40
1.0
 40
1.0
 10
0.5078540073082053
 20
1.7363184833639669
 30
0.0
 10
0.5078984087995222
 20
1.7290569186844533
 30
0.0
 10
0.5084150887670048
 20
1.708132660078618
 30
0.0
 10
0.5110839910330283
 20
1.6750911470724796
 30
0.0
 10
0.5168301726680655
 20
1.6389302199191396
 30
0.0
 10
0.5243113473491701
 20
1.6076111488969571
 30
0.0
 10
0.5328219944062871
 20
1.5811617007450762
 30
0.0
 10
0.5416612342038678
 20
1.5595263905050274
 30
0.0
 10
0.5516662941929075
 20
1.5395641713822847
 30
0.0
 10
0.5594251580640762
 20
1.5272415377741462
 30
0.0
 10
0.5644482038878577
 20
1.5207325497638766
 30
0.0
  0
SPLINE
  5
7B
  8
Cut
 62
1
420
16711680
370
0
 48
1.0
  6
Continuous
100
AcDbEntity
100
AcDbSpline
 70
8
 71
3
 72
15
 73
11
 74
0
 40
0.0
 40
0.0
 40
0.0
 40
0.0
 40
0.2001255096455307
 40
0.2943483555884844
 40
0.3861679858723107
 40
0.4772313955314145
 40
0.5697453566694904
 40
0.6664498717020841
 40
0.7701126166497941
 40
0.9964459079769792
 40
0.9964459079769792
 40
0.9964459079769792
 40
0.9964459079769792
 10
0.5682082021106949
 20
1.5172036327189176
 30
0.0
 10
0.5789816502526186
 20
1.5099239098966277
 30
0.0
 10
0.5940813064016464
 20
1.4980382663755885
 30
0.0
 10
0.6114246182664445
 20
1.4798405328005457
 30
0.0
 10
0.6224385294856698
 20
1.4655444369567976
 30
0.0
 10
0.6316047558668232
 20
1.4501133037321945
 30
0.0
 10
0.6386367469083422
 20
1.433232120599627
 30
0.0
 10
0.6429185216748103
 20
1.4145749201714384
 30
0.0
 10
0.6435361471467693
 20
1.3866198809350032
 30
0.0
 10
0.6359667460179201
 20
1.3656971370857602
 30
0.0
 10
0.6271589594865692
 20
1.3537966194128817
 30
0.0
  0
SPLINE
  5
7C
  8
Cut
 62
1
420
16711680
370
0
 48
1.0
  6
Continuous
100
AcDbEntity
100
AcDbSpline
 70
8
 71
3
 72
15
 73
11
 74
0
 40
0.0035540918828527
 40
0.0035540918828527
 40
0.0035540918828527
 40
0.0035540918828527
 40
0.2298873833502059
 40
0.3335501282979159
 40
0.4302546433305096
 40
0.5227686044685855
 40
0.6138320141276894
 40
0.7056516444115156
 40
0.7998744903544692
 40
1.0
 40
1.0
 40
1.0
 40
1.0
 10
0.6174035025236176
 20
1.3403693848237983
 30
0.0
 10
0.6088071933635011
 20
1.3283152198354544
 30
0.0
 10
0.5912475550668379
 20
1.3146508081400778
 30
0.0
 10
0.5644698760619489
 20
1.3065996226646932
 30
0.0
 10
0.545402682849971
 20
1.3049064404578814
 30
0.0
 10
0.5271747188928492
 20
1.3063776888873284
 30
0.0
 10
0.5096663193597072
 20
1.3103268058080952
 30
0.0
 10
0.4926664385086533
 20
1.3163839212741051
 30
0.0
 10
0.4699999873053388
 20
1.3272549821034652
 30
0.0
 10
0.4540300182250253
 20
1.3379427426407311
 30
0.0
 10
0.4437774118341928
 20
1.3459393426326489
 30
0.0
  0
SPLINE
  5
7D
  8
Cut
 62
1
420
16711680
370
0
 48
1.0
  6
Continuous
100
AcDbEntity
100
AcDbSpline
 70
8
 71
3
 72
15
 73
11
 74
0
 40
0.0
 40
0.0
 40
0.0
 40
0.0
 40
0.0822462370577122
 40
0.1454481652958814
 40
0.2233693144110646
 40
0.3160096886639152
 40
0.4233692905626573
 40
0.5454481217082514
 40
0.6822461831848761
 40
0.7549359041833424
 40
0.7549359041833424
 40
0.7549359041833424
 40
0.7549359041833424
 10
0.4392593089334432
 20
1.3484248181051048
 30
0.0
 10
0.4315166869487166
 20
1.3511906306561055
 30
0.0
 10
0.4173995451645461
 20
1.354761845499457
 30
0.0
 10
0.3953226130217958
 20
1.3581085580435936
 30
0.0
 10
0.3720147349211223
 20
1.3598294961094295
 30
0.0
 10
0.3442298803300892
 20
1.3597502734802194
 30
0.0
 10
0.3121318636357831
 20
1.3571871682163366
 30
0.0
 10
0.2759651104533325
 20
1.3514777706814185
 30
0.0
 10
0.2437160280440666
 20
1.343805658534118
 30
0.0
 10
0.2236562126577365
 20
1.3378310988801327
 30
0.0
 10
0.2167363334353938
 20
1.3356293803160606
 30
0.0
  0
SPLINE
  5
7E
  8
Cut
 62
1
420
16711680
370
0
 48
1.0
  6
Continuous
100
AcDbEntity
100
AcDbSpline
 70
8
 71
3
 72
15
 73
11
 74
0
 40
0.2450640958166586
 40
0.2450640958166586
 40
0.2450640958166586
 40
0.2450640958166586
 40
0.317753816815124
 40
0.4545518782917486
 40
0.5766307094373427
 40
0.6839903113360848
 40
0.7766306855889356
 40
0.8545518347041186
 40
0.9177537629422879
 40
1.0
 40
1.0
 40
1.0
 40
1.0
 10
0.1881466832495619
 20
1.2476394846055303
 30
0.0
 10
0.192450845437799
 20
1.2417908539158269
 30
0.0
 10
0.2051678189358095
 20
1.225166469974051
 30
0.0
 10
0.2267483202837862
 20
1.200004065824003
 30
0.0
 10
0.2526519385692525
 20
1.1741267820466652
 30
0.0
 10
0.277113224086493
 20
1.1531864454890608
 30
0.0
 10
0.2995450777437777
 20
1.1367908252699901
 30
0.0
 10
0.319413089245249
 20
1.1244830664017109
 30
0.0
 10
0.3392408508095018
 20
1.1142141185958345
 30
0.0
 10
0.3527609658425867
 20
1.1088054443494124
 30
0.0
 10
0.3606505824373349
 20
1.1064920346897296
 30
0.0
  0
SPLINE
  5
7F
  8
Cut
 62
1
420
16711680
370
0
 48
1.0
  6
Continuous
100
AcDbEntity
100
AcDbSpline
 70
8
 71
3
 72
15
 73
11
 74
0
 40
0.0
 40
0.0
 40
0.0
 40
0.0
 40
0.2001255096455307
 40
0.2943483555884844
 40
0.3861679858723107
 40
0.4772313955314145
 40
0.5697453566694904
 40
0.6664498717020841
 40
0.7701126166497941
 40
0.9964459081570815
 40
0.9964459081570815
 40
0.9964459081570815
 40
0.9964459081570815
 10
0.3657667302940204
 20
1.1058471523326481
 30
0.0
 10
0.3787615466445728
 20
1.1062902067892368
 30
0.0
 10
0.3979636310540269
 20
1.1055498743907195
 30
0.0
 10
0.4226910245119508
 20
1.1010217416094399
 30
0.0
 10
0.440004500165156
 20
1.0959297717033538
 30
0.0
 10
0.4564903256173792
 20
1.0888334953682022
 30
0.0
 10
0.4721018363608321
 20
1.079309631957257
 30
0.0
 10
0.4865322921737446
 20
1.066732403804761
 30
0.0
 10
0.5034635214742989
 20
1.0444793331185316
 30
0.0
 10
0.50963782759549
 20
1.0231032954093764
 30
0.0
 10
0.509507127384513
 20
1.0082984873296803
 30
0.0
  0
SPLINE
  5
80
  8
Cut
 62
1
420
16711680
370
0
 48
1.0
  6
Continuous
100
AcDbEntity
100
AcDbSpline
 70
8
 71
3
 72
15
 73
11
 74
0
 40
0.0035540918829665
 40
0.0035540918829665
 40
0.0035540918829665
 40
0.0035540918829665
 40
0.2298873833502059
 40
0.3335501282979159
 40
0.4302546433305096
 40
0.5227686044685855
 40
0.6138320141276894
 40
0.7056516444115156
 40
0.7998744903544692
 40
1.0
 40
1.0
 40
1.0
 40
1.0
 10
0.5095071273846231
 20
0.9917015126627743
 30
0.0
 10
0.5096378275940321
 20
0.9768967045857488
 30
0.0
 10
0.5034635214727496
 20
0.9555206668796934
 30
0.0
 10
0.486532292173784
 20
0.933267596195553
 30
0.0
 10
0.4721018363608713
 20
0.920690368043057
 30
0.0
 10
0.4564903256174183
 20
0.9111665046321122
 30
0.0
 10
0.4400045001651948
 20
0.9040702282969609
 30
0.0
 10
0.4226910245119898
 20
0.8989782583908754
 30
0.0
 10
0.3979636310540655
 20
0.8944501256095963
 30
0.0
 10
0.3787615466446112
 20
0.8937097932110791
 30
0.0
 10
0.3657667302940589
 20
0.8941528476676683
 30
0.0
  0
SPLINE
  5
81
  8
Cut
 62
1
420
16711680
370
0
 48
1.0
  6
Continuous
100
AcDbEntity
100
AcDbSpline
 70
8
 71
3
 72
15
 73
11
 74
0
 40
0.0
 40
0.0
 40
0.0
 40
0.0
 40
0.0822462370577122
 40
0.1454481652958814
 40
0.2233693144110646
 40
0.3160096886639152
 40
0.4233692905626573
 40
0.5454481217082514
 40
0.6822461831848761
 40
0.7549359041833424
 40
0.7549359041833424
 40
0.7549359041833424
 40
0.7549359041833424
 10
0.3606505824373737
 20
0.8935079653105869
 30
0.0
 10
0.3527609658426252
 20
0.8911945556509042
 30
0.0
 10
0.3392408508095404
 20
0.8857858814044823
 30
0.0
 10
0.3194130892452872
 20
0.8755169335986065
 30
0.0
 10
0.2995450777438156
 20
0.8632091747303278
 30
0.0
 10
0.2771132240865307
 20
0.8468135545112574
 30
0.0
 10
0.2526519385692899
 20
0.8258732179536535
 30
0.0
 10
0.226748320283823
 20
0.7999959341763163
 30
0.0
 10
0.2051678189358459
 20
0.7748335300262687
 30
0.0
 10
0.1924508454378349
 20
0.758209146084493
 30
0.0
 10
0.1881466832495978
 20
0.7523605153947895
 30
0.0
  0
LINE
  5
82
100
AcDbEntity
100
AcDbLine
  8
Cut
 62
1
420
16711680
370
0
 48
1.0
  6
Continuous
 10
0.4392593088999999
 20
0.6515751819
 30
0.0
 11
0.4437774117999999
 21
0.6540606573999999
 31
0.0
  0
LINE
  5
83
100
AcDbEntity
100
AcDbLine
  8
Cut
 62
1
420
16711680
370
0
 48
1.0
  6
Continuous
 10
0.5682082020999999
 20
0.4827963672999999
 30
0.0
 11
0.5644482038999998
 21
0.4792674501999998
 31
0.0
  0
LINE
  5
84
100
AcDbEntity
100
AcDbLine
  8
Cut
 62
1
420
16711680
370
0
 48
1.0
  6
Continuous
 10
0.7702485216999999
 20
0.3297447670999999
 30
0.0
 11
0.7724428178999998
 21
0.3344112331999999
 31
0.0
  0
LINE
  5
85
100
AcDbEntity
100
AcDbLine
  8
Cut
 62
1
420
16711680
370
0
 48
1.0
  6
Continuous
 10
0.9737760657999999
 20
0.2689940954999999
 30
0.0
 11
0.9728084086999999
 21
0.2639290700999999
 31
0.0
  0
LINE
  5
86
100
AcDbEntity
100
AcDbLine
  8
Cut
 62
1
420
16711680
370
0
 48
1.0
  6
Continuous
 10
1.2271915912999998
 20
0.2639290700999999
 30
0.0
 11
1.2262239341999999
 21
0.2689940954999999
 31
0.0
  0
LINE
  5
87
100
AcDbEntity
100
AcDbLine
  8
Cut
 62
1
420
16711680
370
0
 48
1.0
  6
Continuous
 10
1.4275571820999999
 20
0.3344112331999999
 30
0.0
 11
1.4297514782999998
 21
0.3297447670999999
 31
0.0
  0
LINE
  5
88
100
AcDbEntity
100
AcDbLine
  8
Cut
 62
1
420
16711680
370
0
 48
1.0
  6
Continuous
 10
1.6355517960999999
 20
0.4792674501999998
 30
0.0
 11
1.6317917978999998
 21
0.4827963672999999
 31
0.0
  0
LINE
  5
89
100
AcDbEntity
100
AcDbLine
  8
Cut
 62
1
420
16711680
370
0
 48
1.0
  6
Continuous
 10
1.7562225882
 20
0.6540606573999999
 30
0.0
 11
1.7607406910999999
 21
0.6515751819
 31
0.0
  0
LINE
  5
8A
100
AcDbEntity
100
AcDbLine
  8
Cut
 62
1
420
16711680
370
0
 48
1.0
  6
Continuous
 10
1.8393494175999998
 20
0.8935079652999999
 30
0.0
 11
1.8342332696999999
 21
0.8941528476999999
 31
0.0
  0
LINE
  5
8B
100
AcDbEntity
100
AcDbLine
  8
Cut
 62
1
420
16711680
370
0
 48
1.0
  6
Continuous
 10
1.8342332696999999
 20
1.1058471523
 30
0.0
 11
1.8393494175999998
 21
1.1064920346999998
 31
0.0
  0
LINE
  5
8C
100
AcDbEntity
100
AcDbLine
  8
Cut
 62
1
420
16711680
370
0
 48
1.0
  6
Continuous
 10
1.7607406910999999
 20
1.3484248180999998
 30
0.0
 11
1.7562225882
 21
1.3459393425999999
 31
0.0
  0
LINE
  5
8D
100
AcDbEntity
100
AcDbLine
  8
Cut
 62
1
420
16711680
370
0
 48
1.0
  6
Continuous
 10
1.6317917978999998
 20
1.5172036326999998
 30
0.0
 11
1.6355517960999999
 21
1.5207325497999999
 31
0.0
  0
LINE
  5
8E
100
AcDbEntity
100
AcDbLine
  8
Cut
 62
1
420
16711680
370
0
 48
1.0
  6
Continuous
 10
1.4297514782999998
 20
1.6702552328999998
 30
0.0
 11
1.4275571820999999
 21
1.6655887668
 31
0.0
  0
LINE
  5
8F
100
AcDbEntity
100
AcDbLine
  8
Cut
 62
1
420
16711680
370
0
 48
1.0
  6
Continuous
 10
1.2262239341999999
 20
1.7310059044999999
 30
0.0
 11
1.2271915912999998
 21
1.7360709298999999
 31
0.0
  0
LINE
  5
90
100
AcDbEntity
100
AcDbLine
  8
Cut
 62
1
420
16711680
370
0
 48
1.0
  6
Continuous
 10
0.9728084086999999
 20
1.7360709298999999
 30
0.0
 11
0.9737760657999999
 21
1.7310059044999999
 31
0.0
  0
LINE
  5
91
100
AcDbEntity
100
AcDbLine
  8
Cut
 62
1
420
16711680
370
0
 48
1.0
  6
Continuous
 10
0.7724428178999998
 20
1.6655887668
 30
0.0
 11
0.7702485216999999
 21
1.6702552328999998
 31
0.0
  0
LINE
  5
92
100
AcDbEntity
100
AcDbLine
  8
Cut
 62
1
420
16711680
370
0
 48
1.0
  6
Continuous
 10
0.5644482038999998
 20
1.5207325497999999
 30
0.0
 11
0.5682082020999999
 21
1.5172036326999998
 31
0.0
  0
LINE
  5
93
100
AcDbEntity
100
AcDbLine
  8
Cut
 62
1
420
16711680
370
0
 48
1.0
  6
Continuous
 10
0.4437774117999999
 20
1.3459393425999999
 30
0.0
 11
0.4392593088999999
 21
1.3484248180999998
 31
0.0
  0
LINE
  5
94
100
AcDbEntity
100
AcDbLine
  8
Cut
 62
1
420
16711680
370
0
 48
1.0
  6
Continuous
 10
0.3606505823999999
 20
1.1064920346999998
 30
0.0
 11
0.3657667302999998
 21
1.1058471523
 31
0.0
  0
LINE
  5
95
100
AcDbEntity
100
AcDbLine
  8
Cut
 62
1
420
16711680
370
0
 48
1.0
  6
Continuous
 10
0.3657667302999998
 20
0.8941528476999999
 30
0.0
 11
0.3606505823999999
 21
0.8935079652999999
 31
0.0
  0
ARC
  5
96
100
AcDbEntity
  8
Cut
 62
1
420
16711680
370
0
 48
1.0
  6
Continuous
100
AcDbCircle
 10
1.0999999999999999
 20
0.9999999999999999
 30
0.0
 40
0.9448818897637429
100
AcDbArc
 50
195.193821904
 51
200.80617809590001
  0
ARC
  5
97
100
AcDbEntity
  8
Cut
 62
1
420
16711680
370
0
 48
1.0
  6
Continuous
100
AcDbCircle
 10
1.0999999999999999
 20
0.9999999999999999
 30
0.0
 40
0.5905511811007554
100
AcDbArc
 50
215.19484717540001
 51
216.80515282190001
  0
ARC
  5
98
100
AcDbEntity
  8
Cut
 62
1
420
16711680
370
0
 48
1.0
  6
Continuous
100
AcDbCircle
 10
1.0999999999999999
 20
0.9999999999999999
 30
0.0
 40
0.9448818897638558
100
AcDbArc
 50
231.19382190409999
 51
236.80617809590004
  0
ARC
  5
99
100
AcDbEntity
  8
Cut
 62
1
420
16711680
370
0
 48
1.0
  6
Continuous
100
AcDbCircle
 10
1.0999999999999999
 20
0.9999999999999999
 30
0.0
 40
0.5905511811021917
100
AcDbArc
 50
251.19484717540001
 51
252.80515282189995
  0
ARC
  5
9A
100
AcDbEntity
  8
Cut
 62
1
420
16711680
370
0
 48
1.0
  6
Continuous
100
AcDbCircle
 10
1.0999999999999999
 20
0.9999999999999999
 30
0.0
 40
0.9448818897639268
100
AcDbArc
 50
267.19382190409999
 51
272.80617809590001
  0
ARC
  5
9B
100
AcDbEntity
  8
Cut
 62
1
420
16711680
370
0
 48
1.0
  6
Continuous
100
AcDbCircle
 10
1.0999999999999999
 20
0.9999999999999999
 30
0.0
 40
0.590551181102112
100
AcDbArc
 50
287.19484717760002
 51
288.80515282189998
  0
ARC
  5
9C
100
AcDbEntity
  8
Cut
 62
1
420
16711680
370
0
 48
1.0
  6
Continuous
100
AcDbCircle
 10
1.0999999999999999
 20
0.9999999999999999
 30
0.0
 40
0.9448818897638469
100
AcDbArc
 50
303.19382190409999
 51
308.80617809590001
  0
ARC
  5
9D
100
AcDbEntity
  8
Cut
 62
1
420
16711680
370
0
 48
1.0
  6
Continuous
100
AcDbCircle
 10
1.0999999999999999
 20
0.9999999999999999
 30
0.0
 40
0.5905511811040113
100
AcDbArc
 50
323.19484717540001
 51
324.80515282189998
  0
ARC
  5
9E
100
AcDbEntity
  8
Cut
 62
1
420
16711680
370
0
 48
1.0
  6
Continuous
100
AcDbCircle
 10
1.0999999999999999
 20
0.9999999999999999
 30
0.0
 40
0.9448818897638822
100
AcDbArc
 50
339.19382190409999
 51
344.80617809590001
  0
ARC
  5
9F
100
AcDbEntity
  8
Cut
 62
1
420
16711680
370
0
 48
1.0
  6
Continuous
100
AcDbCircle
 10
1.0999999999999999
 20
0.9999999999999999
 30
0.0
 40
0.5905511811034557
100
AcDbArc
 50
359.19484717709997
 51
0.8051528219000002
  0
ARC
  5
A0
100
AcDbEntity
  8
Cut
 62
1
420
16711680
370
0
 48
1.0
  6
Continuous
100
AcDbCircle
 10
1.0999999999999999
 20
0.9999999999999999
 30
0.0
 40
0.9448818897639236
100
AcDbArc
 50
15.193821904100002
 51
20.806178095899998
  0
ARC
  5
A1
100
AcDbEntity
  8
Cut
 62
1
420
16711680
370
0
 48
1.0
  6
Continuous
100
AcDbCircle
 10
1.0999999999999999
 20
0.9999999999999999
 30
0.0
 40
0.590551181102723
100
AcDbArc
 50
35.1948471754
 51
36.805152821900002
  0
ARC
  5
A2
100
AcDbEntity
  8
Cut
 62
1
420
16711680
370
0
 48
1.0
  6
Continuous
100
AcDbCircle
 10
1.0999999999999999
 20
0.9999999999999999
 30
0.0
 40
0.944881889763867
100
AcDbArc
 50
51.193821904100005
 51
56.806178095900002
  0
ARC
  5
A3
100
AcDbEntity
  8
Cut
 62
1
420
16711680
370
0
 48
1.0
  6
Continuous
100
AcDbCircle
 10
1.0999999999999999
 20
0.9999999999999999
 30
0.0
 40
0.5905511811010399
100
AcDbArc
 50
71.1948471754
 51
72.805152821899995
  0
ARC
  5
A4
100
AcDbEntity
  8
Cut
 62
1
420
16711680
370
0
 48
1.0
  6
Continuous
100
AcDbCircle
 10
1.0999999999999999
 20
0.9999999999999999
 30
0.0
 40
0.9448818897639573
100
AcDbArc
 50
87.193821904099991
 51
92.80617809589998
  0
ARC
  5
A5
100
AcDbEntity
  8
Cut
 62
1
420
16711680
370
0
 48
1.0
  6
Continuous
100
AcDbCircle
 10
1.0999999999999999
 20
0.9999999999999999
 30
0.0
 40
0.5905511811025571
100
AcDbArc
 50
107.1948471776
 51
108.80515282189999
  0
ARC
  5
A6
100
AcDbEntity
  8
Cut
 62
1
420
16711680
370
0
 48
1.0
  6
Continuous
100
AcDbCircle
 10
1.0999999999999999
 20
0.9999999999999999
 30
0.0
 40
0.9448818897639323
100
AcDbArc
 50
123.19382190410001
 51
128.80617809590001
  0
ARC
  5
A7
100
AcDbEntity
  8
Cut
 62
1
420
16711680
370
0
 48
1.0
  6
Continuous
100
AcDbCircle
 10
1.0999999999999999
 20
0.9999999999999999
 30
0.0
 40
0.5905511811035115
100
AcDbArc
 50
143.19484717540001
 51
144.80515282190001
  0
ARC
  5
A8
100
AcDbEntity
  8
Cut
 62
1
420
16711680
370
0
 48
1.0
  6
Continuous
100
AcDbCircle
 10
1.0999999999999999
 20
0.9999999999999999
 30
0.0
 40
0.9448818897640161
100
AcDbArc
 50
159.19382190409999
 51
164.80617809590001
  0
ARC
  5
A9
100
AcDbEntity
  8
Cut
 62
1
420
16711680
370
0
 48
1.0
  6
Continuous
100
AcDbCircle
 10
1.0999999999999999
 20
0.9999999999999999
 30
0.0
 40
0.5905511811033771
100
AcDbArc
 50
179.19484717879996
 51
180.80515282190001
  0
LINE
  5
AA
100
AcDbEntity
100
AcDbLine
  8
Cut
 62
1
420
16711680
370
0
 48
1.0
  6
Continuous
 10
1.1699999999999999
 20
0.9357738371066744
 30
0.0
 11
1.1699999999999999
 21
1.0642261628933252
 31
0.0
  0
ARC
  5
AB
100
AcDbEntity
  8
Cut
 62
256
370
-1
 48
1.0
  6
ByLayer
100
AcDbCircle
 10
1.1000000000000001
 20
0.9999999999999998
 30
0.0
 40
0.0949999999999997
100
AcDbArc
 50
42.536898362986165
 51
317.46310163701384
  0
ENDSEC
  0
SECTION
  2
OBJECTS
  0
DICTIONARY
  5
C
100
AcDbDictionary
280
0
281
1
  3
ACAD_GROUP
350
D
  3
ACAD_LAYOUT
350
1A
  3
ACAD_MLINESTYLE
350
17
  3
ACAD_PLOTSETTINGS
350
19
  3
ACAD_PLOTSTYLENAME
350
E
  3
AcDbVariableDictionary
350
AC
  3
QCAD_OBJECTS
350
AD
  0
DICTIONARY
  5
D
100
AcDbDictionary
280
0
281
1
  0
ACDBDICTIONARYWDFLT
  5
E
100
AcDbDictionary
281
1
  3
Normal
350
F
100
AcDbDictionaryWithDefault
340
F
  0
ACDBPLACEHOLDER
  5
F
  0
DICTIONARY
  5
17
100
AcDbDictionary
280
0
281
1
  3
Standard
350
18
  0
MLINESTYLE
  5
18
100
AcDbMlineStyle
  2
STANDARD
 70
0
  3

 62
256
 51
90.0
 52
90.0
 71
2
 49
0.5
 62
256
  6
BYLAYER
 49
-0.5
 62
256
  6
BYLAYER
  0
DICTIONARY
  5
19
100
AcDbDictionary
280
0
281
1
  0
DICTIONARY
  5
1A
100
AcDbDictionary
281
1
  3
Layout1
350
1E
  3
Layout2
350
26
  3
Model
350
22
  0
LAYOUT
  5
1E
100
AcDbPlotSettings
  1

  2
none_device
  4

  6

 40
0.0
 41
0.0
 42
0.0
 43
0.0
 44
0.0
 45
0.0
 46
0.0
 47
0.0
 48
0.0
 49
0.0
140
0.0
141
0.0
142
1.0
143
1.0
 70
688
 72
0
 73
0
 74
5
  7

 75
16
147
1.0
148
0.0
149
0.0
100
AcDbLayout
  1
Layout1
 70
1
 71
1
 10
0.0
 20
0.0
 11
420.0
 21
297.0
 12
0.0
 22
0.0
 32
0.0
 14
100000000000000000000.0
 24
100000000000000000000.0
 34
100000000000000000000.0
 15
-100000000000000000000.0
 25
-100000000000000000000.0
 35
-100000000000000000000.0
146
0.0
 13
0.0
 23
0.0
 33
0.0
 16
1.0
 26
0.0
 36
0.0
 17
0.0
 27
1.0
 37
0.0
 76
0
330
1B
  0
LAYOUT
  5
22
100
AcDbPlotSettings
  1

  2
none_device
  4

  6

 40
0.0
 41
0.0
 42
0.0
 43
0.0
 44
0.0
 45
0.0
 46
0.0
 47
0.0
 48
0.0
 49
0.0
140
0.0
141
0.0
142
1.0
143
1.0
 70
1712
 72
0
 73
0
 74
0
  7

 75
0
147
1.0
148
0.0
149
0.0
100
AcDbLayout
  1
Model
 70
1
 71
0
 10
0.0
 20
0.0
 11
12.0
 21
9.0
 12
0.0
 22
0.0
 32
0.0
 14
0.0
 24
0.0
 34
0.0
 15
0.0
 25
0.0
 35
0.0
146
0.0
 13
0.0
 23
0.0
 33
0.0
 16
1.0
 26
0.0
 36
0.0
 17
0.0
 27
1.0
 37
0.0
 76
0
330
1F
  0
LAYOUT
  5
26
100
AcDbPlotSettings
  1

  2
none_device
  4

  6

 40
0.0
 41
0.0
 42
0.0
 43
0.0
 44
0.0
 45
0.0
 46
0.0
 47
0.0
 48
0.0
 49
0.0
140
0.0
141
0.0
142
1.0
143
1.0
 70
688
 72
0
 73
0
 74
5
  7

 75
16
147
1.0
148
0.0
149
0.0
100
AcDbLayout
  1
Layout2
 70
1
 71
2
 10
0.0
 20
0.0
 11
12.0
 21
9.0
 12
0.0
 22
0.0
 32
0.0
 14
0.0
 24
0.0
 34
0.0
 15
0.0
 25
0.0
 35
0.0
146
0.0
 13
0.0
 23
0.0
 33
0.0
 16
1.0
 26
0.0
 36
0.0
 17
0.0
 27
1.0
 37
0.0
 76
0
330
23
  0
DICTIONARY
  5
AC
100
AcDbDictionary
281
1
  3
DIMASSOC
350
AF
  3
HIDETEXT
350
AE
  0
DICTIONARYVAR
  5
AE
100
DictionaryVariables
280
0
  1
2
  0
DICTIONARYVAR
  5
AF
100
DictionaryVariables
280
0
  1
1
  0
DICTIONARY
  5
AD
100
AcDbDictionary
281
1
  3
ColorSettings/BackgroundColor
350
B0
  3
ColorSettings/ColorMode
350
B1
  3
Grid/DisplayGrid00
350
B2
  3
Grid/DisplayGrid01
350
B3
  3
Grid/DisplayGrid02
350
B4
  3
Grid/DisplayGrid03
350
B5
  3
Grid/GridSpacingX00
350
B6
  3
Grid/GridSpacingX01
350
B7
  3
Grid/GridSpacingX02
350
B8
  3
Grid/GridSpacingX03
350
B9
  3
Grid/GridSpacingY00
350
BA
  3
Grid/GridSpacingY01
350
BB
  3
Grid/GridSpacingY02
350
BC
  3
Grid/GridSpacingY03
350
BD
  3
Grid/IsometricGrid00
350
BE
  3
Grid/IsometricGrid01
350
BF
  3
Grid/IsometricGrid02
350
C0
  3
Grid/IsometricGrid03
350
C1
  3
Grid/IsometricProjection00
350
C2
  3
Grid/IsometricProjection01
350
C3
  3
Grid/IsometricProjection02
350
C4
  3
Grid/IsometricProjection03
350
C5
  3
Grid/MetaGridSpacingX00
350
C6
  3
Grid/MetaGridSpacingX01
350
C7
  3
Grid/MetaGridSpacingX02
350
C8
  3
Grid/MetaGridSpacingX03
350
C9
  3
Grid/MetaGridSpacingY00
350
CA
  3
Grid/MetaGridSpacingY01
350
CB
  3
Grid/MetaGridSpacingY02
350
CC
  3
Grid/MetaGridSpacingY03
350
CD
  3
MultiPageSettings/Columns
350
CE
  3
MultiPageSettings/GlueMarginsBottom
350
CF
  3
MultiPageSettings/GlueMarginsLeft
350
D0
  3
MultiPageSettings/GlueMarginsRight
350
D1
  3
MultiPageSettings/GlueMarginsTop
350
D2
  3
MultiPageSettings/PrintCropMarks
350
D3
  3
MultiPageSettings/Rows
350
D4
  3
PageSettings/OffsetX
350
D5
  3
PageSettings/OffsetY
350
D6
  3
PageSettings/PageOrientation
350
D7
  3
PageSettings/PaperHeight
350
D8
  3
PageSettings/PaperWidth
350
D9
  3
PageSettings/Scale
350
DA
  3
PageSettings/ShowPaperBorders
350
DB
  3
QCADVersion
350
DC
  3
UnitSettings/PaperUnit
350
DD
  0
XRECORD
  5
B0
330
AD
100
AcDbXrecord
280
1
1000
White
  0
XRECORD
  5
B1
330
AD
100
AcDbXrecord
280
1
1000
FullColor
  0
XRECORD
  5
B2
330
AD
100
AcDbXrecord
280
1
290
1
  0
XRECORD
  5
B3
330
AD
100
AcDbXrecord
280
1
290
1
  0
XRECORD
  5
B4
330
AD
100
AcDbXrecord
280
1
290
1
  0
XRECORD
  5
B5
330
AD
100
AcDbXrecord
280
1
290
1
  0
XRECORD
  5
B6
330
AD
100
AcDbXrecord
280
1
1000
auto
  0
XRECORD
  5
B7
330
AD
100
AcDbXrecord
280
1
1000
auto
  0
XRECORD
  5
B8
330
AD
100
AcDbXrecord
280
1
1000
auto
  0
XRECORD
  5
B9
330
AD
100
AcDbXrecord
280
1
1000
auto
  0
XRECORD
  5
BA
330
AD
100
AcDbXrecord
280
1
1000
auto
  0
XRECORD
  5
BB
330
AD
100
AcDbXrecord
280
1
1000
auto
  0
XRECORD
  5
BC
330
AD
100
AcDbXrecord
280
1
1000
auto
  0
XRECORD
  5
BD
330
AD
100
AcDbXrecord
280
1
1000
auto
  0
XRECORD
  5
BE
330
AD
100
AcDbXrecord
280
1
290
0
  0
XRECORD
  5
BF
330
AD
100
AcDbXrecord
280
1
290
0
  0
XRECORD
  5
C0
330
AD
100
AcDbXrecord
280
1
290
0
  0
XRECORD
  5
C1
330
AD
100
AcDbXrecord
280
1
290
0
  0
XRECORD
  5
C2
330
AD
100
AcDbXrecord
280
1
 90
0
  0
XRECORD
  5
C3
330
AD
100
AcDbXrecord
280
1
 90
0
  0
XRECORD
  5
C4
330
AD
100
AcDbXrecord
280
1
 90
0
  0
XRECORD
  5
C5
330
AD
100
AcDbXrecord
280
1
 90
0
  0
XRECORD
  5
C6
330
AD
100
AcDbXrecord
280
1
1000
auto
  0
XRECORD
  5
C7
330
AD
100
AcDbXrecord
280
1
1000
auto
  0
XRECORD
  5
C8
330
AD
100
AcDbXrecord
280
1
1000
auto
  0
XRECORD
  5
C9
330
AD
100
AcDbXrecord
280
1
1000
auto
  0
XRECORD
  5
CA
330
AD
100
AcDbXrecord
280
1
1000
auto
  0
XRECORD
  5
CB
330
AD
100
AcDbXrecord
280
1
1000
auto
  0
XRECORD
  5
CC
330
AD
100
AcDbXrecord
280
1
1000
auto
  0
XRECORD
  5
CD
330
AD
100
AcDbXrecord
280
1
1000
auto
  0
XRECORD
  5
CE
330
AD
100
AcDbXrecord
280
1
 90
1
  0
XRECORD
  5
CF
330
AD
100
AcDbXrecord
280
1
 40
0.5
  0
XRECORD
  5
D0
330
AD
100
AcDbXrecord
280
1
 40
0.5
  0
XRECORD
  5
D1
330
AD
100
AcDbXrecord
280
1
 40
0.5
  0
XRECORD
  5
D2
330
AD
100
AcDbXrecord
280
1
 40
0.5
  0
XRECORD
  5
D3
330
AD
100
AcDbXrecord
280
1
290
0
  0
XRECORD
  5
D4
330
AD
100
AcDbXrecord
280
1
 90
1
  0
XRECORD
  5
D5
330
AD
100
AcDbXrecord
280
1
 40
0.0
  0
XRECORD
  5
D6
330
AD
100
AcDbXrecord
280
1
 40
0.0
  0
XRECORD
  5
D7
330
AD
100
AcDbXrecord
280
1
1000
Portrait
  0
XRECORD
  5
D8
330
AD
100
AcDbXrecord
280
1
 40
12.0
  0
XRECORD
  5
D9
330
AD
100
AcDbXrecord
280
1
 40
16.0
  0
XRECORD
  5
DA
330
AD
100
AcDbXrecord
280
1
1000
1" = 1"
  0
XRECORD
  5
DB
330
AD
100
AcDbXrecord
280
1
290
1
  0
XRECORD
  5
DC
330
AD
100
AcDbXrecord
280
1
1000
3.12.6
  0
XRECORD
  5
DD
330
AD
100
AcDbXrecord
280
1
 90
1
  0
ENDSEC
  0
EOF
